<?xml version="1.0" encoding="utf-8"?>
<!-- Generator: Adobe Illustrator 25.0.0, SVG Export Plug-In . SVG Version: 6.00 Build 0)  -->
<svg version="1.1" id="图层_1" xmlns="http://www.w3.org/2000/svg" xmlns:xlink="http://www.w3.org/1999/xlink" x="0px" y="0px"
	 viewBox="0 0 48 48" style="enable-background:new 0 0 48 48;" xml:space="preserve">
<style type="text/css">
	.st0{opacity:0.5;fill:#FFFFFF;}
</style>
<path class="st0" d="M39.07,4c2.58,0,4.66,2.08,4.78,4.54V48l-4.91-4.17l-2.7-2.45l-2.94-2.56l1.23,4.04H8.8
	c-2.57,0-4.66-1.95-4.66-4.54V8.55c0-2.45,2.09-4.54,4.67-4.54h30.25L39.07,4z M27.86,14.42H27.8l-0.37,0.37
	c3.8,1.1,5.64,2.82,5.64,2.82c-2.45-1.22-4.66-1.84-6.86-2.08c-1.59-0.25-3.19-0.12-4.54,0H21.3c-0.86,0-2.69,0.37-5.15,1.35
	c-0.86,0.37-1.35,0.62-1.35,0.62s1.84-1.84,5.89-2.82l-0.25-0.25c0,0-3.07-0.12-6.37,2.33c0,0-3.31,5.76-3.31,12.87
	c0,0,1.83,3.19,6.86,3.31c0,0,0.73-0.98,1.48-1.84c-2.82-0.86-3.92-2.57-3.92-2.57s0.25,0.12,0.61,0.37h0.11
	c0.06,0,0.08,0.03,0.11,0.06v0.01c0.03,0.03,0.06,0.06,0.11,0.06c0.6,0.25,1.21,0.5,1.7,0.73c1.06,0.45,2.17,0.78,3.3,0.98
	c1.7,0.25,3.66,0.37,5.89,0c1.1-0.25,2.2-0.49,3.3-0.98c0.72-0.37,1.59-0.73,2.56-1.35c0,0-1.1,1.72-4.04,2.57
	c0.6,0.85,1.46,1.83,1.46,1.83c5.03-0.11,6.98-3.3,7.09-3.16c0-7.1-3.33-12.87-3.33-12.87c-3-2.23-5.8-2.31-6.3-2.31L27.86,14.42
	L27.86,14.42z M28.17,22.51c1.29,0,2.33,1.1,2.33,2.45c0,1.36-1.05,2.46-2.33,2.46s-2.33-1.1-2.33-2.45
	C25.84,23.61,26.89,22.51,28.17,22.51L28.17,22.51z M19.84,22.51c1.28,0,2.32,1.1,2.32,2.45c0,1.36-1.05,2.46-2.33,2.46
	c-1.28,0-2.33-1.1-2.33-2.45C17.5,23.61,18.55,22.51,19.84,22.51L19.84,22.51z"/>
</svg>
