<?xml version="1.0" encoding="utf-8"?>
<!-- Generator: Adobe Illustrator 25.0.0, SVG Export Plug-In . SVG Version: 6.00 Build 0)  -->
<svg version="1.1" id="图层_1" xmlns="http://www.w3.org/2000/svg" xmlns:xlink="http://www.w3.org/1999/xlink" x="0px" y="0px"
	 viewBox="0 0 48 48" style="enable-background:new 0 0 48 48;" xml:space="preserve">
<style type="text/css">
	.st0{opacity:0.5;fill:#FFFFFF;enable-background:new    ;}
</style>
<path id="github" class="st0" d="M24,1.58c-12.7,0-23,10.3-23,23c0,9.9,6.34,18.69,15.73,21.82c1.15,0.2,1.58-0.49,1.58-1.09
	c0-0.55-0.03-2.36-0.03-4.28c-5.78,1.06-7.27-1.41-7.73-2.7c-0.51-1.26-1.32-2.37-2.36-3.25c-0.81-0.43-1.95-1.49-0.03-1.52
	c1.49,0.16,2.81,1.04,3.54,2.36c1.32,2.37,4.32,3.22,6.69,1.9c0,0,0,0,0,0c0.1-1.17,0.62-2.26,1.47-3.08
	C14.74,34.15,9.4,32.16,9.4,23.37c-0.03-2.29,0.81-4.5,2.36-6.19c-0.7-1.99-0.62-4.17,0.23-6.09c0,0,1.92-0.6,6.32,2.36
	c3.76-1.04,7.74-1.04,11.5,0c4.4-2.99,6.32-2.36,6.32-2.36c0.85,1.93,0.93,4.11,0.23,6.09c1.55,1.68,2.39,3.89,2.36,6.18
	c0,8.83-5.37,10.78-10.49,11.36c1.11,1.13,1.68,2.68,1.55,4.25c0,3.08-0.03,5.55-0.03,6.32c0,0.6,0.43,1.32,1.58,1.09
	c12.04-4.06,18.52-17.11,14.46-29.15C42.64,7.88,33.87,1.58,24,1.58L24,1.58z"/>
</svg>
