<?xml version="1.0" encoding="utf-8"?>
<!-- Generator: Adobe Illustrator 25.0.0, SVG Export Plug-In . SVG Version: 6.00 Build 0)  -->
<svg version="1.1" id="图层_1" xmlns="http://www.w3.org/2000/svg" xmlns:xlink="http://www.w3.org/1999/xlink" x="0px" y="0px"
	 viewBox="0 0 48 48" style="enable-background:new 0 0 48 48;" xml:space="preserve">
<style type="text/css">
	.st0{opacity:0.5;fill:#FFFFFF;enable-background:new    ;}
</style>
<path class="st0" d="M42.4,4H5.6C4.72,4,4,4.72,4,5.6v36.8C4,43.28,4.72,44,5.6,44h36.8c0.88,0,1.6-0.72,1.6-1.6V5.6
	C44,4.72,43.28,4,42.4,4z M36.8,14.28l-2.04,1.96c-0.18,0.13-0.27,0.36-0.23,0.57v14.38c-0.03,0.22,0.05,0.44,0.23,0.57l2,1.96v0.43
	H26.72v-0.42l2.07-2.01c0.21-0.21,0.21-0.27,0.21-0.57V19.52L23.24,34.1h-0.78l-6.69-14.58v9.77c-0.06,0.41,0.08,0.82,0.38,1.12
	l2.69,3.26v0.43H11.2v-0.43l2.69-3.26c0.29-0.29,0.42-0.72,0.35-1.12V18c0.03-0.32-0.08-0.62-0.33-0.83l-2.39-2.88v-0.43h7.43
	l5.73,12.58l5.04-12.57h7.08L36.8,14.28L36.8,14.28z"/>
</svg>
