<?xml version="1.0" encoding="utf-8"?>
<!-- Generator: Adobe Illustrator 25.0.0, SVG Export Plug-In . SVG Version: 6.00 Build 0)  -->
<svg version="1.1" id="图层_1" xmlns="http://www.w3.org/2000/svg" xmlns:xlink="http://www.w3.org/1999/xlink" x="0px" y="0px"
	 viewBox="0 0 48 48" style="enable-background:new 0 0 48 48;" xml:space="preserve">
<style type="text/css">
	.st0{opacity:0.5;fill:#FFFFFF;enable-background:new    ;}
</style>
<path class="st0" d="M29.45,31.48c0.11,0.11,0.17,0.26,0.17,0.42c0,0.01,0,0.02,0,0.03c-0.01,0.19-0.12,0.36-0.28,0.45
	c-0.23,0.14-0.78,0.46-1.11,0.64c-0.86,0.44-1.8,0.73-2.76,0.86c-0.48,0.06-0.96,0.08-1.45,0.06c-0.48,0.02-0.97,0-1.45-0.06
	c-0.48-0.06-0.95-0.17-1.42-0.31c-0.46-0.14-0.91-0.33-1.34-0.55c-0.39-0.2-0.77-0.43-1.13-0.69c-0.15-0.11-0.24-0.27-0.24-0.45
	c0-0.01,0-0.02,0-0.03c0.01-0.15,0.07-0.29,0.17-0.39c0.1-0.1,0.24-0.17,0.39-0.17c0.15-0.01,0.29,0.04,0.41,0.13
	c0.33,0.24,0.68,0.45,1.04,0.63c0.36,0.18,0.74,0.33,1.13,0.45c0.39,0.12,0.79,0.2,1.19,0.25c0.4,0.05,0.81,0.07,1.22,0.05
	c0.41,0.02,0.81,0.01,1.22-0.04c0.4-0.05,0.8-0.13,1.19-0.24c0.39-0.11,0.77-0.26,1.14-0.44c0.37-0.18,0.72-0.39,1.05-0.62
	c0.13-0.1,0.28-0.16,0.44-0.15C29.19,31.31,29.34,31.37,29.45,31.48z M46,24c0,12.15-9.85,22-22,22S2,36.15,2,24S11.85,2,24,2
	S46,11.85,46,24z M38.67,24c-0.02-0.62-0.22-1.22-0.58-1.73c-0.36-0.51-0.85-0.9-1.43-1.13c-0.57-0.23-1.2-0.29-1.81-0.18
	c-0.61,0.12-1.17,0.41-1.62,0.84c-0.62-0.42-1.27-0.8-1.95-1.13c-1.35-0.66-2.79-1.12-4.28-1.37c-0.74-0.12-1.49-0.19-2.24-0.21
	l1.43-6.86l4.71,0.99c0.12,1.07,0.99,1.91,2.07,1.96c1.08,0.06,2.04-0.68,2.26-1.74c0.23-1.06-0.35-2.12-1.36-2.51
	c-1.01-0.39-2.15,0.01-2.69,0.95L25.8,10.8c-0.09-0.02-0.18-0.02-0.27,0c-0.09,0.02-0.17,0.05-0.25,0.1
	c-0.08,0.05-0.14,0.11-0.19,0.19c-0.05,0.07-0.09,0.16-0.11,0.25l-1.63,7.63c-0.76,0.01-1.52,0.08-2.27,0.2
	c-0.75,0.12-1.49,0.3-2.22,0.53c-0.73,0.23-1.43,0.51-2.12,0.84c-0.68,0.33-1.34,0.71-1.97,1.14c-0.69-0.65-1.62-0.96-2.56-0.85
	c-0.94,0.1-1.78,0.62-2.31,1.4c-0.53,0.78-0.68,1.76-0.43,2.66c0.25,0.91,0.9,1.66,1.75,2.05c-0.01,0.08-0.01,0.16-0.01,0.24
	c-0.01,0.16-0.01,0.32,0,0.48c0,0.08,0.01,0.16,0.01,0.24c0,4.93,5.74,8.93,12.83,8.93s12.83-4,12.83-8.93
	c0.01-0.08,0.01-0.16,0.01-0.24c0.01-0.16,0.01-0.32,0-0.48c0-0.08-0.01-0.16-0.01-0.24c0.27-0.13,0.52-0.31,0.74-0.51
	c0.22-0.2,0.41-0.44,0.57-0.7c0.16-0.26,0.28-0.54,0.36-0.83C38.64,24.6,38.68,24.3,38.67,24z M20.91,27.04
	c0.34-0.82,0.15-1.77-0.48-2.4c-0.63-0.63-1.58-0.82-2.4-0.48c-0.82,0.34-1.36,1.14-1.36,2.03c0,0.29,0.06,0.57,0.17,0.84
	c0.11,0.27,0.27,0.51,0.48,0.71c0.2,0.2,0.45,0.37,0.71,0.48c0.27,0.11,0.55,0.17,0.84,0.17C19.76,28.4,20.57,27.86,20.91,27.04z
	 M28.22,24.17c-0.82,0.34-1.36,1.14-1.36,2.03c0,0.29,0.06,0.57,0.17,0.84c0.11,0.27,0.27,0.51,0.48,0.71
	c0.2,0.2,0.45,0.37,0.71,0.48c0.27,0.11,0.55,0.17,0.84,0.17c0.89,0,1.69-0.54,2.03-1.36c0.34-0.82,0.15-1.77-0.48-2.4
	C29.99,24.02,29.04,23.83,28.22,24.17z"/>
</svg>
