<?xml version="1.0" encoding="utf-8"?>
<!-- Generator: Adobe Illustrator 25.0.0, SVG Export Plug-In . SVG Version: 6.00 Build 0)  -->
<svg version="1.1" id="图层_1" xmlns="http://www.w3.org/2000/svg" xmlns:xlink="http://www.w3.org/1999/xlink" x="0px" y="0px"
	 viewBox="0 0 48 48" style="enable-background:new 0 0 48 48;" xml:space="preserve">
<style type="text/css">
	.st0{opacity:0.5;fill:#FFFFFF;enable-background:new    ;}
</style>
<path id="twitter" class="st0" d="M11.47,13.87c3.96,2.08,8.35,3.22,12.83,3.32c0,0-2.23-7.8,4.65-11.26
	c3.96-2,8.77-1.02,11.63,2.37c0,0,1.2-0.33,2.09-0.66c0.89-0.33,2.18-0.92,2.18-0.92l-2.12,3.81L46,10.19
	c-0.51,0.65-1.08,1.25-1.71,1.79c-0.65,0.58-1.26,1.19-1.85,1.83c0,0,0.47,9.39-4.45,16.62S26.7,41.99,17.46,42.91
	c-5.26,0.63-10.58-0.36-15.26-2.85c2.25-0.13,4.47-0.54,6.61-1.22c2.2-1,4.3-2.2,6.28-3.59c0,0-5.26-1.63-7.16-3.46
	c-0.95-0.83-1.75-1.81-2.36-2.92l5.2-0.07c0,0-5.47-2.92-7.02-5.23C2.83,22.22,2.23,20.66,2,19.03l4,1.62c0,0-3.32-4.54-3.79-8.07
	c-0.35-1.83-0.14-3.72,0.61-5.43C2.81,7.16,4.52,10.34,11.47,13.87z"/>
</svg>
