<svg xmlns="http://www.w3.org/2000/svg" xmlns:xlink="http://www.w3.org/1999/xlink" viewBox="0 0 259.91 127.26"><defs><style>.cls-1{fill:none;}.cls-2{fill:#333;}.cls-3{fill:#6482c9;}.cls-4{clip-path:url(#clip-path);}.cls-5{fill:#556bb5;}.cls-6{clip-path:url(#clip-path-2);}.cls-7{clip-path:url(#clip-path-3);}.cls-8{clip-path:url(#clip-path-4);}.cls-9{clip-path:url(#clip-path-5);}.cls-10{fill:#aed9f6;}.cls-11{fill:#33313f;}.cls-11,.cls-13{isolation:isolate;}.cls-12{fill:#f8f8f8;}.cls-13{fill:#f18f57;}.cls-14{clip-path:url(#clip-path-6);}.cls-15{clip-path:url(#clip-path-7);}</style><clipPath id="clip-path" transform="translate(-4694.43 -4224.32)"><path id="Fill_5" data-name="Fill 5" class="cls-1" d="M4798.92,4290q.87,7.95.87,11.49a55.21,55.21,0,0,0-5.7-.86,13.46,13.46,0,0,1-4-.78,2.8,2.8,0,0,1-1.34-2.34,64.92,64.92,0,0,0,1.08-11.56q.39-9.24.39-20,0-9.66-.39-16.28t-1.08-7.13c.52-.35,1.47-.16,2.85.56s3.34,1.92,5.88,3.59a10.41,10.41,0,0,1,9.24-4.58,20.19,20.19,0,0,1,9.28,2.42,16.72,16.72,0,0,1,6.69,5.52,14.38,14.38,0,0,1,2.08,8,26.78,26.78,0,0,1-1.55,8.78,23.71,23.71,0,0,1-4.36,7.68,12.26,12.26,0,0,1-6.18,4.1,25.81,25.81,0,0,1-6.31.69,12.78,12.78,0,0,1-8.46-2.42,120.13,120.13,0,0,0,1,13.13"/></clipPath><clipPath id="clip-path-2" transform="translate(-4694.43 -4224.32)"><path id="Fill_9" data-name="Fill 9" class="cls-1" d="M4899.14,4284.14a21.69,21.69,0,0,0-2.76.35c-2.13.29-3.43.43-3.88.43a2.79,2.79,0,0,1-1.65-.34,3.28,3.28,0,0,1-1.08-1.08,15.55,15.55,0,0,1-.82-1.43,7.57,7.57,0,0,0-1.21-1.9,17.38,17.38,0,0,1-10.62,3.63,14.24,14.24,0,0,1-8.68-2.72,10.08,10.08,0,0,1-4.19-7.13q-.34-3.54-.34-8.72l.08-6.57q.09-2.23.09-6.47,0-4-.26-7.18c1.5-.57,2.81-1,3.93-1.42a10.72,10.72,0,0,1,3.33-.56,5.43,5.43,0,0,1,1.2.17q-.69,10.64-.68,17.54,0,9.15,1.21,11.83a4.32,4.32,0,0,0,2.11,3.15,7.9,7.9,0,0,0,4.19,1.08,9,9,0,0,0,5.52-1.72,4.4,4.4,0,0,0,1.9-4.5q.18-3,.18-11.05,0-10.36-.09-15.12a11.5,11.5,0,0,1,3.15-.91,24.82,24.82,0,0,1,4.63-.56,4,4,0,0,1,1.64.26,129.61,129.61,0,0,0-1,17.28,73.37,73.37,0,0,0,1.29,15.72,47.88,47.88,0,0,0,2.85,7.94"/></clipPath><clipPath id="clip-path-3" transform="translate(-4694.43 -4224.32)"><path id="Fill_11" data-name="Fill 11" class="cls-1" d="M4906.81,4225.79a46,46,0,0,1,6.35-1.47q.18,2-.26,14.81t-.52,16.72q-.77,22.2-.77,27.55-2.43,2.16-9.16,2.93,1-7.18,1.56-58.73c.05-.63,1-1.23,2.8-1.81"/></clipPath><clipPath id="clip-path-4" transform="translate(-4694.43 -4224.32)"><path id="Fill_13" data-name="Fill 13" class="cls-1" d="M4935.94,4285.78a18.92,18.92,0,0,1-9.33-2.42,18.3,18.3,0,0,1-6.91-6.87,20.13,20.13,0,0,1-2.59-10.23,26.85,26.85,0,0,1,1-7.08,22.15,22.15,0,0,1,7.3-11.8,17.87,17.87,0,0,1,11.36-4.18,15.11,15.11,0,0,1,10.14,3.75,17.72,17.72,0,0,1,5.58,10.76c.13.56.4,1.69.69,3a18.5,18.5,0,0,1,.51,4.06,3.51,3.51,0,0,1-.6,2.33c-1.12.06-3.31.12-6.69.17s-7.05.09-11,.09a49.67,49.67,0,0,1-9.75-.43,6.66,6.66,0,0,0-.35,2.17c0,2.63,1.57,4.81,4.66,6.47a23.52,23.52,0,0,0,11.23,2.5,27.42,27.42,0,0,0,9.16-1.47l4.06-1.55a25,25,0,0,1-8.47,8A20.38,20.38,0,0,1,4935.94,4285.78Zm1.12-34.72a9.38,9.38,0,0,0-6.18,2.59,16.23,16.23,0,0,0-4.53,7.43h1.55c2.43,0,5.48-.1,9.08-.32a44.83,44.83,0,0,0,8.55-1,5.4,5.4,0,0,0-.35-1.12,10.9,10.9,0,0,1-.43-1.21,9.3,9.3,0,0,0-3-4.75A7.3,7.3,0,0,0,4937.06,4251.06Z"/></clipPath><clipPath id="clip-path-5" transform="translate(-4694.43 -4224.32)"><path id="Fill_7" data-name="Fill 7" class="cls-1" d="M4836.23,4255.09a31.34,31.34,0,0,0,1.9,3.15,4.9,4.9,0,0,0,2.19,1.51q1.61.66,4.45,1.6a45.37,45.37,0,0,1,8.68,3.59,7.34,7.34,0,0,1,3.84,5.22,14.16,14.16,0,0,1,.27,2.68,10.62,10.62,0,0,1-2.46,7.12,15,15,0,0,1-6.22,4.32,21.06,21.06,0,0,1-7.48,1.43,28.8,28.8,0,0,1-6.91-.91,21.67,21.67,0,0,1-6-2.33c-1.55-.95-2.26-1.91-2.15-2.89l2.16-10.88a23.77,23.77,0,0,0,5.53,7.07,10.3,10.3,0,0,0,7.34,3.29,7.2,7.2,0,0,0,4.71-1.6,4.69,4.69,0,0,0,1.94-3.67,5.35,5.35,0,0,0-2.29-4.06,16.8,16.8,0,0,0-7-2.94,15.23,15.23,0,0,1-8.68-4.62,11.39,11.39,0,0,1-3-7.73,12.07,12.07,0,0,1,2.38-7.13,13.69,13.69,0,0,1,6.52-4.87,17.13,17.13,0,0,1,6.22-1.13,21.91,21.91,0,0,1,13.38,5,8,8,0,0,1-1.38,4.79,4.24,4.24,0,0,1-3.28,2,9.31,9.31,0,0,0-3.11-4.11,7.15,7.15,0,0,0-4.23-1.42,7.42,7.42,0,0,0-4.27,1.38,10.23,10.23,0,0,0-3.33,3.88,2.39,2.39,0,0,0,.26,2.21"/></clipPath><clipPath id="clip-path-6" transform="translate(-4694.43 -4224.32)"><path id="Fill_1" data-name="Fill 1" class="cls-1" d="M4714.71,4229.63a52,52,0,0,1,22.46-4.27,19.76,19.76,0,0,1,2.81,5.53,18,18,0,0,1,1.17,5.61c0,1.33-.32,2.11-.95,2.34a10.43,10.43,0,0,0-5.19-2.56,29.05,29.05,0,0,0-7.42-1.08,8.67,8.67,0,0,0-3,.44,21.42,21.42,0,0,0-10.54,7.94,20.32,20.32,0,0,0-3.54,11.57,21.79,21.79,0,0,0,2.63,10.45,20.85,20.85,0,0,0,18.87,11,31.53,31.53,0,0,0,12.44-2.68,13,13,0,0,1-6.65,7.78,25.28,25.28,0,0,1-21.85.87,26.73,26.73,0,0,1-12.26-10.32,27.92,27.92,0,0,1-4.15-15.07,36.73,36.73,0,0,1,2.5-13.39,24.6,24.6,0,0,1,12.7-14.21"/></clipPath><clipPath id="clip-path-7" transform="translate(-4694.43 -4224.32)"><path id="Fill_3" data-name="Fill 3" class="cls-1" d="M4773.36,4286.39l-.11,0v-5.78a26.21,26.21,0,0,1-3.93,3.11,8.65,8.65,0,0,1-3.93,1.21l-1.55.09a15.35,15.35,0,0,1-8.95-2.64,16.42,16.42,0,0,1-5.65-7,22.59,22.59,0,0,1-1.9-9.24,23.05,23.05,0,0,1,3.15-11.79,17.4,17.4,0,0,1,8.94-7.64,21.42,21.42,0,0,1,7.86-1.64,17.45,17.45,0,0,1,8.11,2.16l2.86-1.21c1.55-.58,3.06-1.22,4.49-1.9-.69,8.25-1,16.62-1,24.87,0,3.48.05,6.52.13,9s.19,4.2.3,5.05a8.46,8.46,0,0,1-3.1,1.85,26.46,26.46,0,0,1-3.81,1.13A13,13,0,0,1,4773.36,4286.39Zm-3.1-34.91h0a4.36,4.36,0,0,0-.81.08,14.73,14.73,0,0,0-9.93,4.54,12.94,12.94,0,0,0-3.37,8.77,13.32,13.32,0,0,0,1.51,6.22,12.27,12.27,0,0,0,4.32,4.75,11.89,11.89,0,0,0,6.52,1.81,18.36,18.36,0,0,0,4.66-.69c.29-6,.43-11.16.43-15.29v-9.16c-.12-.06-.65-.29-1.51-.65a4.89,4.89,0,0,0-1.81-.38Z"/></clipPath></defs><g id="图层_2" data-name="图层 2"><path id="Fill_15" data-name="Fill 15" class="cls-2" d="M4779.36,4350.39h-39.81l.07-2.34,6.13-.62q.21-6.89.21-19.35v-4.9q0-14.25-.21-21.35l-6.2-.55v-2.35h24.93v2.35l-6.76.62q-.12,7-.13,20.18v4.47q0,14,.14,21.15h14.33l3.44-12.74h3.72Z" transform="translate(-4694.43 -4224.32)"/><path id="Fill_17" data-name="Fill 17" class="cls-2" d="M4813.73,4351.55a7.6,7.6,0,0,1-8.12-6,15.79,15.79,0,0,1-11.64,6,10.25,10.25,0,0,1-7.23-2.55,8.76,8.76,0,0,1-2.82-6.82,9.67,9.67,0,0,1,3.18-7.57,31,31,0,0,1,11.49-5.31c1.3-.37,3.57-1,6.75-1.79v-4.19a13.38,13.38,0,0,0-1.44-7.38,6.61,6.61,0,0,0-5.44-1.92,15.66,15.66,0,0,0-2.9.28l-.48,4.89c-.18,4.34-1.92,6.53-5.16,6.53a4.34,4.34,0,0,1-4.76-3.5,9.71,9.71,0,0,1,4.83-7.72,23,23,0,0,1,12.39-2.89,14.17,14.17,0,0,1,10.54,3.38,15.36,15.36,0,0,1,3.17,10.81v18.53c0,2.33.71,3.52,2.13,3.52,1,0,2-.85,3.1-2.62l1.17,1A8.8,8.8,0,0,1,4813.73,4351.55Zm-8.39-22.17a31.88,31.88,0,0,0-3.79,1.17,10.54,10.54,0,0,0-7.38,10.26c0,4,1.74,6.06,5.17,6.06a10.17,10.17,0,0,0,6-3.16v-14.33Z" transform="translate(-4694.43 -4224.32)"/><path id="Fill_19" data-name="Fill 19" class="cls-2" d="M4868,4348.25v2.14h-20v-2.14l4.34-.41q.12-8,.13-13.85v-9.91q0-7.31-4.75-7.31a12.94,12.94,0,0,0-7.85,3.92V4334q0,5.79.14,13.91l3.93.35v2.13h-19.91v-2.13l4.61-.41q.15-8.15.14-13.85v-5.71q0-5.1-.21-10.06l-5.16-.55V4316l14.94-4.34,1,.69.42,6.05a17,17,0,0,1,12.88-6.81,10.17,10.17,0,0,1,8,3.24,14.94,14.94,0,0,1,3,10V4334q0,7.92.21,13.91Z" transform="translate(-4694.43 -4224.32)"/><g id="编组-3"><g id="编组-4"><path id="Fill_21" data-name="Fill 21" class="cls-2" d="M4888.35,4351.55a14.53,14.53,0,0,1-11.44-5.16,24.9,24.9,0,0,1,.35-29.54,15.47,15.47,0,0,1,12.05-5.24,12.52,12.52,0,0,1,9.85,4.68V4298.8l-5.64-.55v-1.79l15.61-3,1,.62-.28,11V4348l4.47.28v2.13l-14.74.83L4899,4347A14.65,14.65,0,0,1,4888.35,4351.55Zm5.3-35.2a8,8,0,0,0-7.18,3.78,21.44,21.44,0,0,0-2.39,11.31,22.37,22.37,0,0,0,2.32,11.42,7.65,7.65,0,0,0,7,3.8,8.47,8.47,0,0,0,5.37-1.78v-26.73a8.12,8.12,0,0,0-5.09-1.79Z" transform="translate(-4694.43 -4224.32)"/></g></g><g id="编组"><g id="编组-2"><path id="Fill_1-2" data-name="Fill 1" class="cls-3" d="M4714.71,4229.63a52,52,0,0,1,22.46-4.27,19.76,19.76,0,0,1,2.81,5.53,18,18,0,0,1,1.17,5.61c0,1.33-.32,2.11-.95,2.34a10.43,10.43,0,0,0-5.19-2.56,29.05,29.05,0,0,0-7.42-1.08,8.67,8.67,0,0,0-3,.44,21.42,21.42,0,0,0-10.54,7.94,20.32,20.32,0,0,0-3.54,11.57,21.79,21.79,0,0,0,2.63,10.45,20.85,20.85,0,0,0,18.87,11,31.53,31.53,0,0,0,12.44-2.68,13,13,0,0,1-6.65,7.78,25.28,25.28,0,0,1-21.85.87,26.73,26.73,0,0,1-12.26-10.32,27.92,27.92,0,0,1-4.15-15.07,36.73,36.73,0,0,1,2.5-13.39,24.6,24.6,0,0,1,12.7-14.21" transform="translate(-4694.43 -4224.32)"/></g></g><path id="Fill_3-2" data-name="Fill 3" class="cls-3" d="M4773.36,4286.39l-.11,0v-5.78a26.21,26.21,0,0,1-3.93,3.11,8.65,8.65,0,0,1-3.93,1.21l-1.55.09a15.35,15.35,0,0,1-8.95-2.64,16.42,16.42,0,0,1-5.65-7,22.59,22.59,0,0,1-1.9-9.24,23.05,23.05,0,0,1,3.15-11.79,17.4,17.4,0,0,1,8.94-7.64,21.42,21.42,0,0,1,7.86-1.64,17.45,17.45,0,0,1,8.11,2.16l2.86-1.21c1.55-.58,3.06-1.22,4.49-1.9-.69,8.25-1,16.62-1,24.87,0,3.48.05,6.52.13,9s.19,4.2.3,5.05a8.46,8.46,0,0,1-3.1,1.85,26.46,26.46,0,0,1-3.81,1.13A13,13,0,0,1,4773.36,4286.39Zm-3.1-34.91h0a4.36,4.36,0,0,0-.81.08,14.73,14.73,0,0,0-9.93,4.54,12.94,12.94,0,0,0-3.37,8.77,13.32,13.32,0,0,0,1.51,6.22,12.27,12.27,0,0,0,4.32,4.75,11.89,11.89,0,0,0,6.52,1.81,18.36,18.36,0,0,0,4.66-.69c.29-6,.43-11.16.43-15.29v-9.16c-.12-.06-.65-.29-1.51-.65a4.89,4.89,0,0,0-1.81-.38Z" transform="translate(-4694.43 -4224.32)"/><path id="Fill_5-2" data-name="Fill 5" class="cls-3" d="M4798.92,4290q.87,7.95.87,11.49a55.21,55.21,0,0,0-5.7-.86,13.46,13.46,0,0,1-4-.78,2.8,2.8,0,0,1-1.34-2.34,64.92,64.92,0,0,0,1.08-11.56q.39-9.24.39-20,0-9.66-.39-16.28t-1.08-7.13c.52-.35,1.47-.16,2.85.56s3.34,1.92,5.88,3.59a10.41,10.41,0,0,1,9.24-4.58,20.19,20.19,0,0,1,9.28,2.42,16.72,16.72,0,0,1,6.69,5.52,14.38,14.38,0,0,1,2.08,8,26.78,26.78,0,0,1-1.55,8.78,23.71,23.71,0,0,1-4.36,7.68,12.26,12.26,0,0,1-6.18,4.1,25.81,25.81,0,0,1-6.31.69,12.78,12.78,0,0,1-8.46-2.42,120.13,120.13,0,0,0,1,13.13" transform="translate(-4694.43 -4224.32)"/><g class="cls-4"><path class="cls-5" d="M4790.13,4275s1,17,4.13,21.19,8.94,7.9,8.94,7.9l-14.47,1.4s-3.14-4.65-3.23-4.93S4790.13,4275,4790.13,4275Z" transform="translate(-4694.43 -4224.32)"/></g><path id="Fill_7-2" data-name="Fill 7" class="cls-3" d="M4836.23,4255.09a31.34,31.34,0,0,0,1.9,3.15,4.9,4.9,0,0,0,2.19,1.51q1.61.66,4.45,1.6a45.37,45.37,0,0,1,8.68,3.59,7.34,7.34,0,0,1,3.84,5.22,14.16,14.16,0,0,1,.27,2.68,10.62,10.62,0,0,1-2.46,7.12,15,15,0,0,1-6.22,4.32,21.06,21.06,0,0,1-7.48,1.43,28.8,28.8,0,0,1-6.91-.91,21.67,21.67,0,0,1-6-2.33c-1.55-.95-2.26-1.91-2.15-2.89l2.16-10.88a23.77,23.77,0,0,0,5.53,7.07,10.3,10.3,0,0,0,7.34,3.29,7.2,7.2,0,0,0,4.71-1.6,4.69,4.69,0,0,0,1.94-3.67,5.35,5.35,0,0,0-2.29-4.06,16.8,16.8,0,0,0-7-2.94,15.23,15.23,0,0,1-8.68-4.62,11.39,11.39,0,0,1-3-7.73,12.07,12.07,0,0,1,2.38-7.13,13.69,13.69,0,0,1,6.52-4.87,17.13,17.13,0,0,1,6.22-1.13,21.91,21.91,0,0,1,13.38,5,8,8,0,0,1-1.38,4.79,4.24,4.24,0,0,1-3.28,2,9.31,9.31,0,0,0-3.11-4.11,7.15,7.15,0,0,0-4.23-1.42,7.42,7.42,0,0,0-4.27,1.38,10.23,10.23,0,0,0-3.33,3.88,2.39,2.39,0,0,0,.26,2.21" transform="translate(-4694.43 -4224.32)"/><path id="Fill_9-2" data-name="Fill 9" class="cls-3" d="M4899.14,4284.14a21.69,21.69,0,0,0-2.76.35c-2.13.29-3.43.43-3.88.43a2.79,2.79,0,0,1-1.65-.34,3.28,3.28,0,0,1-1.08-1.08,15.55,15.55,0,0,1-.82-1.43,7.57,7.57,0,0,0-1.21-1.9,17.38,17.38,0,0,1-10.62,3.63,14.24,14.24,0,0,1-8.68-2.72,10.08,10.08,0,0,1-4.19-7.13q-.34-3.54-.34-8.72l.08-6.57q.09-2.23.09-6.47,0-4-.26-7.18c1.5-.57,2.81-1,3.93-1.42a10.72,10.72,0,0,1,3.33-.56,5.43,5.43,0,0,1,1.2.17q-.69,10.64-.68,17.54,0,9.15,1.21,11.83a4.32,4.32,0,0,0,2.11,3.15,7.9,7.9,0,0,0,4.19,1.08,9,9,0,0,0,5.52-1.72,4.4,4.4,0,0,0,1.9-4.5q.18-3,.18-11.05,0-10.36-.09-15.12a11.5,11.5,0,0,1,3.15-.91,24.82,24.82,0,0,1,4.63-.56,4,4,0,0,1,1.64.26,129.61,129.61,0,0,0-1,17.28,73.37,73.37,0,0,0,1.29,15.72,47.88,47.88,0,0,0,2.85,7.94" transform="translate(-4694.43 -4224.32)"/><g class="cls-6"><path class="cls-5" d="M4864,4258.66s1.85,17.41,6.25,19.48c2.82,1.32,10.63,5.4,17.5,2l-16.94,13.33-9.3-13.35Z" transform="translate(-4694.43 -4224.32)"/></g><path id="Fill_11-2" data-name="Fill 11" class="cls-3" d="M4906.81,4225.79a46,46,0,0,1,6.35-1.47q.18,2-.26,14.81t-.52,16.72q-.77,22.2-.77,27.55-2.43,2.16-9.16,2.93,1-7.18,1.56-58.73c.05-.63,1-1.23,2.8-1.81" transform="translate(-4694.43 -4224.32)"/><g class="cls-7"><path class="cls-5" d="M4903.81,4244.14s1,32.31,2.53,35,5.27,4.26,5.27,4.26-2.7,7-7.8,5.68-3.61-2.69-3.61-2.69Z" transform="translate(-4694.43 -4224.32)"/></g><path id="Fill_13-2" data-name="Fill 13" class="cls-3" d="M4935.94,4285.78a18.92,18.92,0,0,1-9.33-2.42,18.3,18.3,0,0,1-6.91-6.87,20.13,20.13,0,0,1-2.59-10.23,26.85,26.85,0,0,1,1-7.08,22.15,22.15,0,0,1,7.3-11.8,17.87,17.87,0,0,1,11.36-4.18,15.11,15.11,0,0,1,10.14,3.75,17.72,17.72,0,0,1,5.58,10.76c.13.56.4,1.69.69,3a18.5,18.5,0,0,1,.51,4.06,3.51,3.51,0,0,1-.6,2.33c-1.12.06-3.31.12-6.69.17s-7.05.09-11,.09a49.67,49.67,0,0,1-9.75-.43,6.66,6.66,0,0,0-.35,2.17c0,2.63,1.57,4.81,4.66,6.47a23.52,23.52,0,0,0,11.23,2.5,27.42,27.42,0,0,0,9.16-1.47l4.06-1.55a25,25,0,0,1-8.47,8A20.38,20.38,0,0,1,4935.94,4285.78Zm1.12-34.72a9.38,9.38,0,0,0-6.18,2.59,16.23,16.23,0,0,0-4.53,7.43h1.55c2.43,0,5.48-.1,9.08-.32a44.83,44.83,0,0,0,8.55-1,5.4,5.4,0,0,0-.35-1.12,10.9,10.9,0,0,1-.43-1.21,9.3,9.3,0,0,0-3-4.75A7.3,7.3,0,0,0,4937.06,4251.06Z" transform="translate(-4694.43 -4224.32)"/><g class="cls-8"><path class="cls-5" d="M4917.11,4266.26s4.44,9.54,12.08,13.53c0,0,19,4.64,25.15-4.72l-6.14,19.77-30.33-9.9Z" transform="translate(-4694.43 -4224.32)"/></g><path id="Fill_23" data-name="Fill 23" class="cls-5" d="M4700.63,4265.15a14.65,14.65,0,0,0,2.15,5.31,26,26,0,0,0,18.05,13.41c14.55,2.85,21.44-6.1,21.44-6.1s-12,2.4-20.31.72-21.33-13.34-21.33-13.34" transform="translate(-4694.43 -4224.32)"/><path id="Fill_25" data-name="Fill 25" class="cls-5" d="M4748.46,4273.48s7.61,6.83,12.51,7.82a37.43,37.43,0,0,0,11.9-.42s-4,5.25-12.56,3.59a15.26,15.26,0,0,1-10.59-7.88,8.54,8.54,0,0,1-1.26-3.11" transform="translate(-4694.43 -4224.32)"/><g class="cls-9"><path class="cls-5" d="M4824.65,4275.47s11.61,8.49,20.11,8.21c4.49-.15,10.91-4.48,10.91-4.48l-8.72,14.2-28.28-6.51Z" transform="translate(-4694.43 -4224.32)"/><path class="cls-5" d="M4835.82,4253.82a9.92,9.92,0,0,1,1.4-5.2c3.65-5.28,14.7-3.17,17.77,2.78s-7.82,4.75-7.82,4.75Z" transform="translate(-4694.43 -4224.32)"/></g><path id="Fill_27" data-name="Fill 27" class="cls-10" d="M4796.38,4261.11V4259a10.54,10.54,0,0,1,21.07,0v2.12" transform="translate(-4694.43 -4224.32)"/><path id="Fill_29" data-name="Fill 29" class="cls-11" d="M4818.67,4261.11h-2.4V4259a9.34,9.34,0,0,0-18.68,0v2.11h-2.41V4259a11.75,11.75,0,0,1,23.49,0Z" transform="translate(-4694.43 -4224.32)"/><path id="Fill_31" data-name="Fill 31" class="cls-12" d="M4798.72,4258.28a6.56,6.56,0,0,1,2.05-4.8,7.18,7.18,0,0,1,5.37-2.7,1.2,1.2,0,0,1-.05,2.4,4.86,4.86,0,0,0-3.49,1.85,5.08,5.08,0,0,0-1.5,3v0Z" transform="translate(-4694.43 -4224.32)"/><path id="Fill_33" data-name="Fill 33" class="cls-13" d="M4817.26,4265.4c.62-.06,1.11-1.9,1.11-2.68a1.37,1.37,0,0,0-1.19-1.48h-20.52a1.37,1.37,0,0,0-1.2,1.48c0,.82.53,2.68,1.2,2.68h0a10.52,10.52,0,0,0,20.58,0" transform="translate(-4694.43 -4224.32)"/><path id="Fill_35" data-name="Fill 35" class="cls-11" d="M4807,4274.94a10.89,10.89,0,0,1-11.35-8.72,5.43,5.43,0,0,1-1.35-3.49,2.54,2.54,0,0,1,2.39-2.68h20.52a2.55,2.55,0,0,1,2.4,2.68,5.65,5.65,0,0,1-1.24,3.43A10.87,10.87,0,0,1,4807,4274.94Zm-10.23-12.49a.45.45,0,0,0-.07.28,4,4,0,0,0,.38,1.47h.61l.2,1a9.33,9.33,0,0,0,18.23,0l.16-.9.55-.05a4.58,4.58,0,0,0,.37-1.51.52.52,0,0,0-.07-.27Z" transform="translate(-4694.43 -4224.32)"/><g class="cls-14"><path class="cls-5" d="M4699.13,4263.73s13.39,12.44,22.83,14.76c8.84,2.17,29.62-2.44,29.62-2.44l-28.5,20.56-28.65-7.16Z" transform="translate(-4694.43 -4224.32)"/></g><g class="cls-15"><path class="cls-5" d="M4748.07,4273.13s7,6.22,11.56,7.78c4.73,1.63,13.51-.09,13.51-.09s-4.73,7.34-14.71,4S4748.07,4273.13,4748.07,4273.13Z" transform="translate(-4694.43 -4224.32)"/></g></g></svg>