<?xml version="1.0" encoding="utf-8"?>
<!-- Generator: Adobe Illustrator 25.0.0, SVG Export Plug-In . SVG Version: 6.00 Build 0)  -->
<svg version="1.1" id="图层_1" xmlns="http://www.w3.org/2000/svg" xmlns:xlink="http://www.w3.org/1999/xlink" x="0px" y="0px"
	 viewBox="0 0 841.89 595.28" style="enable-background:new 0 0 841.89 595.28;" xml:space="preserve">
<style type="text/css">
	.st0{opacity:0.08;}
	.st1{fill:#FFFFFF;}
	.st2{fill:url(#SVGID_1_);}
	.st3{fill:url(#SVGID_2_);}
</style>
<g>
	<g class="st0">
		<path class="st1" d="M230.18,358.49V276.6H244v35.5h40.65v-35.5h13.82v81.89h-13.82v-33.5H244v33.5H230.18z"/>
		<path class="st1" d="M361.03,358.49h-11.95v-8.32c-5.15,6.17-12.07,9.25-20.73,9.25c-6.48,0-11.85-1.83-16.11-5.51
			c-4.26-3.67-6.38-8.57-6.38-14.7c0-6.13,2.26-10.72,6.79-13.76c4.53-3.05,10.66-4.57,18.39-4.57h16.99v-2.34
			c0-8.28-4.61-12.42-13.82-12.42c-5.78,0-11.79,2.11-18.04,6.33l-5.86-8.2c7.57-6.01,16.17-9.02,25.77-9.02
			c7.34,0,13.33,1.86,17.98,5.56c4.65,3.71,6.97,9.55,6.97,17.51V358.49z M347.91,335.29v-5.27h-14.76c-9.45,0-14.18,2.97-14.18,8.9
			c0,3.05,1.17,5.37,3.51,6.97c2.34,1.6,5.6,2.4,9.78,2.4c4.18,0,7.83-1.17,10.95-3.51C346.35,342.44,347.91,339.28,347.91,335.29z"
			/>
		<path class="st1" d="M414.92,339.86c0,5.94-2.15,10.68-6.44,14.23c-4.3,3.55-9.8,5.33-16.52,5.33c-4.53,0-9.24-0.82-14.12-2.46
			c-4.88-1.64-9.2-3.94-12.94-6.91l6.33-10.19c7.26,5.47,14.29,8.2,21.09,8.2c2.97,0,5.31-0.68,7.03-2.05
			c1.72-1.37,2.58-3.1,2.58-5.21c0-3.12-4.14-5.93-12.42-8.43c-0.63-0.23-1.09-0.39-1.41-0.47c-12.96-3.51-19.45-9.37-19.45-17.57
			c0-5.78,2.24-10.41,6.74-13.88c4.49-3.47,10.33-5.21,17.51-5.21c7.18,0,13.98,2.11,20.38,6.33l-4.92,9.72
			c-5.08-3.36-10.58-5.04-16.52-5.04c-3.12,0-5.66,0.57-7.61,1.7c-1.95,1.13-2.93,2.83-2.93,5.1c0,2.03,1.01,3.51,3.05,4.45
			c1.41,0.7,3.38,1.37,5.92,1.99c2.54,0.63,4.78,1.25,6.74,1.87c1.95,0.63,3.85,1.33,5.68,2.11c1.83,0.78,3.81,1.88,5.92,3.28
			C412.81,329.55,414.92,333.93,414.92,339.86z"/>
		<path class="st1" d="M434.13,324.75v33.74h-13.12v-86.81h13.12v35.85c1.87-3.83,4.7-6.83,8.49-9.02
			c3.79-2.19,7.87-3.28,12.24-3.28c7.03,0,12.71,2.15,17.04,6.44c4.33,4.3,6.5,10.5,6.5,18.63v38.19h-13.12v-34.21
			c0-11.48-4.76-17.22-14.29-17.22c-4.53,0-8.47,1.5-11.83,4.51C435.81,314.58,434.13,318.97,434.13,324.75z"/>
		<path class="st1" d="M521.29,295.23c8.36,0,15.5,2.89,21.44,8.67c5.93,5.78,8.9,13.47,8.9,23.08s-2.95,17.42-8.84,23.43
			c-5.9,6.01-12.77,9.02-20.62,9.02c-7.85,0-14.9-3.44-21.15-10.31v32.1H487.9v-85.05h13.12v10.89
			C506.18,299.17,512.93,295.23,521.29,295.23z M500.79,327.45c0,5.94,1.8,10.8,5.39,14.58c3.59,3.79,7.97,5.68,13.12,5.68
			s9.64-1.88,13.47-5.62c3.82-3.75,5.74-8.61,5.74-14.58s-1.88-10.93-5.62-14.88c-3.75-3.94-8.24-5.92-13.47-5.92
			s-9.65,1.97-13.24,5.92C502.58,316.57,500.79,321.51,500.79,327.45z"/>
		<path class="st1" d="M608.33,358.49h-11.95v-8.32c-5.15,6.17-12.07,9.25-20.74,9.25c-6.48,0-11.85-1.83-16.11-5.51
			c-4.26-3.67-6.38-8.57-6.38-14.7c0-6.13,2.26-10.72,6.79-13.76c4.53-3.05,10.66-4.57,18.39-4.57h16.99v-2.34
			c0-8.28-4.61-12.42-13.82-12.42c-5.78,0-11.79,2.11-18.04,6.33l-5.86-8.2c7.57-6.01,16.17-9.02,25.77-9.02
			c7.34,0,13.33,1.86,17.98,5.56c4.65,3.71,6.97,9.55,6.97,17.51V358.49z M595.21,335.29v-5.27h-14.76c-9.45,0-14.17,2.97-14.17,8.9
			c0,3.05,1.17,5.37,3.51,6.97c2.34,1.6,5.6,2.4,9.78,2.4c4.18,0,7.83-1.17,10.95-3.51C593.64,342.44,595.21,339.28,595.21,335.29z"
			/>
		<path class="st1" d="M630.94,358.49h-13.12v-86.92h13.12V358.49z"/>
		<path class="st1" d="M699.12,333.07h-48.85c0.31,4.53,2.38,8.18,6.21,10.95c3.83,2.77,8.2,4.16,13.12,4.16
			c7.81,0,13.74-2.46,17.81-7.38l7.5,8.2c-6.72,6.95-15.46,10.43-26.24,10.43c-8.75,0-16.19-2.91-22.32-8.73
			c-6.13-5.82-9.2-13.63-9.2-23.43c0-9.8,3.12-17.59,9.37-23.37c6.25-5.78,13.61-8.67,22.08-8.67c8.47,0,15.68,2.56,21.61,7.67
			c5.93,5.12,8.9,12.17,8.9,21.15V333.07z M650.26,322.76h35.73c0-5.23-1.64-9.25-4.92-12.07s-7.32-4.22-12.12-4.22
			s-9.12,1.46-12.95,4.39C652.18,313.8,650.26,317.76,650.26,322.76z"/>
		<path class="st1" d="M720.44,306.71v31.63c0,2.97,0.78,5.33,2.34,7.09c1.56,1.76,3.75,2.64,6.56,2.64s5.51-1.37,8.08-4.1
			l5.39,9.25c-4.61,4.14-9.71,6.21-15.29,6.21c-5.58,0-10.35-1.93-14.29-5.8c-3.95-3.87-5.92-9.08-5.92-15.64v-31.28h-7.85v-10.54
			h7.85V276.6h13.12v19.56h16.4v10.54H720.44z"/>
	</g>
	<g id="Logo">
	</g>
	<g id="Guide">
		<g>
			<g>
				<path class="st1" d="M389.05,261.41h-5.58c-0.93,0-1.6,0.76-1.6,1.61v21.32h-30.93v-21.32c0-0.85-0.68-1.61-1.6-1.61h-5.58
					c-0.85,0-1.61,0.76-1.61,1.61v51.44c0,0.85,0.76,1.61,1.61,1.61h5.58c0.93,0,1.6-0.76,1.6-1.61v-22.17h30.93v22.17
					c0,0.85,0.68,1.61,1.6,1.61h5.58c0.85,0,1.61-0.76,1.61-1.61v-51.44C390.65,262.17,389.9,261.41,389.05,261.41z"/>
				<path class="st1" d="M415.34,281.41c-6.25,0-11.07,1.69-11.66,1.94c-0.76,0.25-1.35,0.84-1.1,1.94l0.68,3.13
					c0.25,0.93,0.85,1.6,1.86,1.35c1.77-0.51,5.58-1.52,9.46-1.52c4.31,0,5.32,2.11,5.24,7.44c0,0-3.13-1.01-6.68-1.01
					c-8.62,0-13.52,4.73-13.52,10.9c0,7.01,4.56,11.32,10.9,11.32c5.24,0,8.53-2.53,10.39-4.31l0.84,2.28
					c0.34,0.85,0.68,1.18,1.44,1.18h2.37c0.84,0,1.6-0.76,1.6-1.61v-18C427.18,288,426.15,281.41,415.34,281.41z M419.74,306.68
					c-1.01,1.69-4.23,4.23-7.61,4.23c-3.13,0-5.16-2.37-5.16-5.41c0-3.46,2.79-5.58,6.85-5.58c3.04,0,5.41,1.01,5.92,1.35V306.68
					L419.74,306.68z"/>
				<path class="st1" d="M450.34,295.35c-3.3-1.44-5.41-2.37-5.41-4.56c0-1.27,0.93-2.53,3.8-2.53c3.21,0,6.93,1.77,6.93,1.77
					c0.68,0.34,1.78,0.08,2.2-0.68l1.52-2.87c0.51-0.85,0.09-1.94-0.68-2.45c-1.69-1.1-5.24-2.62-9.97-2.62
					c-8.11,0-11.58,5.07-11.58,9.3c0,5.58,4.39,8.79,9.63,11.07c4.65,2.11,6.51,3.21,6.51,5.49c0,1.86-1.61,2.87-4.14,2.87
					c-4.14,0-7.86-2.2-7.86-2.2c-0.85-0.51-1.77-0.25-2.11,0.42l-1.77,3.3c-0.34,0.68,0,1.44,0.51,1.77
					c1.77,1.44,5.49,3.46,11.16,3.46c7.52,0,12.51-4.65,12.51-9.89C461.58,300.68,456.52,298.06,450.34,295.35z"/>
				<path class="st1" d="M490.55,281.41c-5.41,0-9.3,3.04-10.14,3.63v-22.03c0-0.85-0.76-1.61-1.6-1.61h-4.9
					c-0.85,0-1.61,0.76-1.61,1.61v51.44c0,0.85,0.76,1.61,1.61,1.61h4.82c1.1,0,1.69-0.68,1.69-1.61v-20.37
					c0.42-1.44,3.97-5.32,9.13-5.32c4.39,0,7.18,3.04,7.18,8.54v17.15c0,0.85,0.67,1.61,1.6,1.61h4.73c0.85,0,1.61-0.76,1.61-1.61
					v-16.99C504.65,288.25,500.09,281.41,490.55,281.41z"/>
				<path class="st1" d="M531.22,281.41c-6.25,0-9.72,3.55-10.31,4.14l-0.84-2.2c-0.34-0.76-0.76-1.1-1.44-1.1h-2.53
					c-0.85,0-1.61,0.76-1.61,1.61v55.94c0,0.84,0.76,1.6,1.61,1.6h4.73c1.18,0,1.77-0.68,1.77-1.6v-25.18
					c0.59,0.34,3.89,2.28,8.28,2.28c9.21,0,16.48-7.77,16.48-17.66C547.37,289.52,540.53,281.41,531.22,281.41z M529.88,309.63
					c-4.48,0-7.44-2.45-7.44-2.45v-13.52c0.34-1.01,2.87-4.9,7.77-4.9c5.75,0,9.3,4.82,9.3,10.48
					C539.51,304.99,535.46,309.63,529.88,309.63z"/>
				<path class="st1" d="M570.01,281.41c-6.25,0-11.07,1.69-11.66,1.94c-0.76,0.25-1.35,0.84-1.1,1.94l0.68,3.13
					c0.25,0.93,0.85,1.6,1.86,1.35c1.77-0.51,5.58-1.52,9.46-1.52c4.31,0,5.32,2.11,5.24,7.44c0,0-3.13-1.01-6.68-1.01
					c-8.62,0-13.52,4.73-13.52,10.9c0,7.01,4.56,11.32,10.9,11.32c5.24,0,8.53-2.53,10.39-4.31l0.84,2.28
					c0.34,0.85,0.68,1.18,1.44,1.18h2.37c0.84,0,1.6-0.76,1.6-1.61v-18C581.84,288,580.83,281.41,570.01,281.41z M574.41,306.68
					c-1.01,1.69-4.23,4.23-7.61,4.23c-3.13,0-5.16-2.37-5.16-5.41c0-3.46,2.79-5.58,6.85-5.58c3.04,0,5.41,1.01,5.92,1.35V306.68
					L574.41,306.68z"/>
				<path class="st1" d="M599.75,261.41h-4.82c-0.85,0-1.61,0.76-1.61,1.61v51.44c0,0.85,0.76,1.61,1.61,1.61h4.82
					c0.85,0,1.61-0.76,1.61-1.61v-51.44C601.36,262.17,600.6,261.41,599.75,261.41z"/>
				<path class="st1" d="M627.28,281.41c-10.14,0-16.9,8.2-16.9,17.75c0,9.72,6.76,17.75,16.99,17.75c5.66,0,10.06-2.11,12.51-4.23
					c1.01-0.84,0.76-1.52,0.17-2.2l-2.37-3.21c-0.67-0.84-1.27-0.51-2.28,0.09c-1.69,1.1-4.48,2.45-7.52,2.45
					c-5.49,0-9.47-4.48-9.72-9.04h22.99c0.76,0,1.44-0.59,1.52-1.44c0.08-0.59,0.17-1.69,0.17-2.28
					C642.83,288,636.07,281.41,627.28,281.41z M618.57,295.44c0.51-4.23,4.06-7.52,8.62-7.52c4.14,0,7.52,3.46,7.77,7.52H618.57z"/>
				<path class="st1" d="M671.72,308.62c-0.34-0.76-0.84-1.27-1.94-0.76c-1.02,0.51-3.38,1.52-5.15,1.52c-1.61,0-2.7-0.51-2.7-3.38
					v-16.73h8.62c0.93,0,1.6-0.76,1.6-1.61v-3.8c0-0.93-0.68-1.61-1.6-1.61h-8.62v-9.46c0-0.84-0.68-1.61-1.52-1.61l-4.82,0.09
					c-0.85,0-1.61,0.76-1.61,1.6v9.38h-3.55c-0.93,0-1.61,0.68-1.61,1.61v3.8c0,0.85,0.68,1.61,1.61,1.61h3.55v17.58
					c0,6,1.94,10.06,8.62,10.06c4.06,0,9.04-2.03,9.89-2.53c0.84-0.42,1.18-1.1,0.76-2.03L671.72,308.62z"/>
				<path class="st1" d="M702.86,308.62c-0.34-0.76-0.84-1.27-1.94-0.76c-1.02,0.51-3.38,1.52-5.16,1.52c-1.61,0-2.7-0.51-2.7-3.38
					v-16.73h8.62c0.93,0,1.6-0.76,1.6-1.61v-3.8c0-0.93-0.68-1.61-1.6-1.61h-8.62v-9.46c0-0.84-0.68-1.61-1.52-1.61l-4.82,0.09
					c-0.85,0-1.61,0.76-1.61,1.6v9.38h-3.55c-0.93,0-1.61,0.68-1.61,1.61v3.8c0,0.85,0.68,1.61,1.61,1.61h3.55v17.58
					c0,6,1.94,10.06,8.62,10.06c4.06,0,9.04-2.03,9.89-2.53c0.84-0.42,1.18-1.1,0.76-2.03L702.86,308.62z"/>
				<path class="st1" d="M726.6,281.41c-10.14,0-16.9,8.2-16.9,17.75c0,9.72,6.76,17.75,16.99,17.75c5.66,0,10.06-2.11,12.51-4.23
					c1.01-0.84,0.76-1.52,0.17-2.2l-2.37-3.21c-0.67-0.84-1.27-0.51-2.28,0.09c-1.69,1.1-4.48,2.45-7.52,2.45
					c-5.49,0-9.47-4.48-9.72-9.04h22.99c0.76,0,1.44-0.59,1.52-1.44c0.08-0.59,0.17-1.69,0.17-2.28
					C742.15,288,735.39,281.41,726.6,281.41z M717.9,295.44c0.51-4.23,4.06-7.52,8.62-7.52c4.14,0,7.52,3.46,7.77,7.52H717.9z"/>
			</g>
			<g>
				
					<linearGradient id="SVGID_1_" gradientUnits="userSpaceOnUse" x1="270.8259" y1="772.9716" x2="279.6459" y2="781.7916" gradientTransform="matrix(1 0 0 1 0 -482)">
					<stop  offset="0" style="stop-color:#57A0D0"/>
					<stop  offset="1" style="stop-color:#7DC7B0"/>
				</linearGradient>
				<polygon class="st2" points="269.44,292.36 268.58,298.4 281.04,298.4 281.9,292.36 269.91,292.36 				"/>
				
					<linearGradient id="SVGID_2_" gradientUnits="userSpaceOnUse" x1="235.2725" y1="734.0131" x2="308.7194" y2="807.46" gradientTransform="matrix(1 0 0 1 0 -482)">
					<stop  offset="0" style="stop-color:#57A0D0"/>
					<stop  offset="1" style="stop-color:#7DC7B0"/>
				</linearGradient>
				<path class="st3" d="M316.18,259.76L275,235.99c-1.86-1.07-4.14-1.07-6,0l-41.18,23.77c-1.86,1.07-3,3.05-3,5.2v47.55
					c0,2.14,1.14,4.12,3,5.2L269,341.48c1.86,1.07,4.14,1.07,6,0l41.18-23.77c1.86-1.07,3-3.05,3-5.2v-47.55
					C319.18,262.82,318.03,260.83,316.18,259.76z M295.36,260.17l-8.03,57.13c-0.09,0.86-0.86,1.64-1.64,1.64h-6.04
					c-0.86,0-1.38-0.78-1.29-1.64l1.53-10.79h-12.45l-1.53,10.79c-0.09,0.86-0.78,1.64-1.64,1.64h-6.04c-0.78,0-1.38-0.78-1.29-1.64
					l1.52-10.79h-10.63c-0.78,0-1.29-0.78-1.21-1.64l0.69-4.83c0.17-0.95,0.86-1.64,1.64-1.64h10.65l0.85-6.04h-10.63
					c-0.78,0-1.29-0.78-1.21-1.64l0.69-4.83c0.17-0.95,0.86-1.64,1.64-1.64h10.64l3.38-24.08c0.17-0.86,0.95-1.64,1.73-1.64h6.04
					c0.86,0,1.38,0.78,1.29,1.64l-3.45,24.08h0.47h11.98l3.37-24.08c0.17-0.86,0.86-1.64,1.72-1.64h6.04
					C294.93,258.52,295.53,259.3,295.36,260.17z"/>
			</g>
		</g>
	</g>
</g>
</svg>
