<svg xmlns="http://www.w3.org/2000/svg" viewBox="0 0 150 150"><defs><style>.cls-1,.cls-2,.cls-3{fill:none;}.cls-1,.cls-2{stroke:#fff;stroke-miterlimit:10;stroke-width:5px;}.cls-2{stroke-linecap:round;}</style></defs><g id="图层_2" data-name="图层 2"><g id="图层_1-2" data-name="图层 1"><path class="cls-1" d="M47.27,62.51H55a0,0,0,0,1,0,0v28a0,0,0,0,1,0,0h-7.7A5.52,5.52,0,0,1,41.75,85V68A5.52,5.52,0,0,1,47.27,62.51Z"/><path class="cls-1" d="M55,62.51,76.48,49.32a1.47,1.47,0,0,1,2.24,1.25V99.23a1.68,1.68,0,0,1-2.4,1.51L55,90.51Z"/><line class="cls-2" x1="88.03" y1="68.73" x2="88.03" y2="81.18"/><line class="cls-2" x1="98.14" y1="60.56" x2="98.14" y2="89.34"/><line class="cls-2" x1="108.25" y1="50.84" x2="108.25" y2="99.06"/><rect class="cls-3" width="150" height="150"/></g></g></svg>