<svg xmlns="http://www.w3.org/2000/svg" viewBox="0 0 150 150"><defs><style>.cls-1,.cls-3{fill:none;}.cls-1{stroke:#fff;stroke-linecap:round;stroke-linejoin:round;stroke-width:5px;}.cls-2{fill:#fff;}</style></defs><g id="图层_2" data-name="图层 2"><g id="图层_1-2" data-name="图层 1"><polygon class="cls-1" points="94.75 58.27 44.27 58.27 55.25 44 105.73 44 94.75 58.27"/><rect class="cls-1" x="44.27" y="58.27" width="50.48" height="47.73"/><polyline class="cls-1" points="94.75 106 105.73 89.83 105.73 44"/><path class="cls-2" d="M65.32,73.79a2.38,2.38,0,0,1,1.28.88,2.46,2.46,0,0,1,.45,1.47A2.4,2.4,0,0,1,66.37,78a2.53,2.53,0,0,1-1.85.67,2.44,2.44,0,0,1-2.08-.94,4,4,0,0,1-.7-2.46,6.67,6.67,0,0,1,2.13-4.81,7.83,7.83,0,0,1,3.73-2.17A10,10,0,0,1,69.91,68a8.59,8.59,0,0,1,6.3,2.35,6.84,6.84,0,0,1,2,5.1q0,4-4.23,6.8l-1.12.8a5.05,5.05,0,0,0-2.39,4.44v.87a.73.73,0,0,1-.21.51.74.74,0,0,1-.51.22H68.25a.74.74,0,0,1-.51-.22.73.73,0,0,1-.21-.51v-.94a8.22,8.22,0,0,1,2.71-6.26l.65-.61A17.57,17.57,0,0,0,73.24,78a4.46,4.46,0,0,0,.65-2.46,4.75,4.75,0,0,0-1.27-3.47,4,4,0,0,0-3-1.23,6.78,6.78,0,0,0-1.2.11,4.61,4.61,0,0,0-2.28,1.41A4.27,4.27,0,0,0,65.32,73.79Zm3.87,16.78a2.57,2.57,0,0,1,1.92.83,2.7,2.7,0,0,1-1.92,4.74,2.82,2.82,0,0,1-2.06-.74,2.68,2.68,0,0,1-.76-2,2.6,2.6,0,0,1,.87-2A2.54,2.54,0,0,1,69.19,90.57Z"/><rect class="cls-3" width="150" height="150"/><rect class="cls-3" width="150" height="150"/></g></g></svg>