<svg xmlns="http://www.w3.org/2000/svg" viewBox="0 0 150 150"><defs><style>.cls-1,.cls-2,.cls-3{fill:none;}.cls-1,.cls-2{stroke:#fff;stroke-linecap:round;stroke-width:5px;}.cls-1{stroke-miterlimit:10;}.cls-2{stroke-linejoin:round;}</style></defs><g id="图层_2" data-name="图层 2"><g id="图层_1-2" data-name="图层 1"><path class="cls-1" d="M31.47,65.63,54.85,40.15a5.51,5.51,0,0,1,4.07-1.79l32.14-.12a5.53,5.53,0,0,1,4.12,1.81l23.24,25.47A2.31,2.31,0,0,1,119,67.1V85.39a2.35,2.35,0,0,1-4,1.7l-12.72-12a1.93,1.93,0,0,0-3.25,1.39l-.27,30.76a4.54,4.54,0,0,1-4.62,4.51l-38.86-.65a4.53,4.53,0,0,1-4.46-4.56l.27-29.37a1.93,1.93,0,0,0-3.36-1.3L34.33,91A1.93,1.93,0,0,1,31,89.75V66.94A2,2,0,0,1,31.47,65.63Z"/><polygon class="cls-2" points="58.92 38.36 74.81 54.67 66.87 64.72 58.92 38.36"/><polygon class="cls-2" points="92.3 38.49 76.4 54.8 84.35 64.85 92.3 38.49"/><line class="cls-2" x1="74.98" y1="54.88" x2="74.98" y2="111.25"/><line class="cls-2" x1="38.64" y1="60.34" x2="38.64" y2="85.74"/><line class="cls-2" x1="111.32" y1="60.34" x2="111.32" y2="82.74"/><rect class="cls-3" width="150" height="150"/></g></g></svg>