<?xml version="1.0" encoding="utf-8"?>
<!-- Generator: Adobe Illustrator 25.0.0, SVG Export Plug-In . SVG Version: 6.00 Build 0)  -->
<svg version="1.1" id="图层_1" xmlns="http://www.w3.org/2000/svg" xmlns:xlink="http://www.w3.org/1999/xlink" x="0px" y="0px"
	 viewBox="0 0 1920 1080" style="enable-background:new 0 0 1920 1080;" xml:space="preserve">
<style type="text/css">
	.st0{fill:#FFFFFF;}
	.st1{fill:none;}
	.st2{fill:#BF0F23;}
	.st3{opacity:0.08;}
</style>
<g>
	<g>
		<g>
			<path class="st0" d="M825.25,550.95c0,8.51,0,16.72,0,24.93c0,5.81-2.53,8.39-8.29,8.36c-9.21-0.04-18.42-0.13-27.63-0.21
				c-0.31-0.01-0.62-0.07-1.39-0.16c14.9-9.44,23.4-22.43,23.57-39.9c0.16-17.69-9.34-30.38-23.75-40.31c0,0,1.85-0.04,2.46-0.04
				c8.55-0.02,17.1-0.05,25.65-0.05c6.14,0.01,9.38,3.24,9.38,9.32c0.01,7.06,0,14.11,0,21.17c0,0.89,0,1.77,0,2.82
				c11.39,0,22.45,0,33.77,0c0-11.06,0-21.99,0-33.11c4.59,0,8.93,0,13.53,0c0,26.72,0,53.46,0,80.36c-4.38,0-8.74,0-13.42,0
				c0-11.04,0-22.03,0-33.17C847.73,550.95,836.65,550.95,825.25,550.95z"/>
			<path class="st0" d="M1125.71,561.7c1.98-4.82,3.63-8.96,5.42-13.03c0.2-0.45,0.39-0.89,0.39-0.89s6.49-0.03,7.63-0.18
				c8.1-1.03,13.71-7.83,13.43-16.12c-0.25-7.43-6.82-13.98-14.63-14.29c-5.06-0.2-10.13,0.03-15.18-0.08
				c-2.17-0.05-1.88,1.31-1.88,2.63c0,12.86,0,25.73,0,38.59c0,7.64,0,15.27,0,22.9c0,0.9,0,1.8,0,2.89c-10.74,0-21.2,0-32.11,0
				c11.56-11.13,18.38-24.2,18.37-40.18c-0.01-15.91-6.79-28.92-18.79-40.34c4.68,0,8.61,0.03,12.54,0
				c10.53-0.09,21.07-0.32,31.6-0.26c5.2,0.03,10.4,0.16,15.42,2.13c11.65,4.59,19.42,16.71,18.42,29.08
				c-1.04,12.89-10.59,24.07-23.14,26.22C1137.71,561.71,1131.99,561.4,1125.71,561.7z"/>
			<path class="st0" d="M1015.14,503.66c4.44,0,8.73,0,13.37,0c0,8.97,0,27.15,0,27.15c13.89-12.4,37.72-5.84,40.42,16.61
				c1.45,12,0.26,24.33,0.26,36.68c-4.27,0-8.63,0-13.35,0c0-0.89,0.01-21.73-0.02-31.27c-0.02-7.86-6.09-14.35-13.63-14.2
				c-9.06,0.18-13.8,7.5-13.7,14.1c0.15,9.54,0.04,30.4,0.04,31.42c-4.58,0-8.87,0-13.4,0
				C1015.14,557.42,1015.14,530.69,1015.14,503.66z"/>
			<path class="st0" d="M943.6,583.02c-4.42,0-8.62,0-13.05,0c-0.04-0.99-0.08-19.5-0.13-27.89c-0.05-8.38-6.34-15.51-14.2-16.2
				c-8.98-0.79-16.34,4.56-18.09,13.14c-2.35,11.48,8.54,21.49,20.3,18.67c0.55-0.13,1.1-0.27,1.84-0.45
				c1.57,3.89,3.11,7.7,4.63,11.48c-6.37,4.15-22.08,4.76-31.95-5.43c-9.79-10.11-11.25-27-3.11-38.79
				c4.57-6.61,10.88-10.63,18.84-11.78c7.76-1.12,14.98,0.5,21.58,5.57c0.11-1.69,0.2-2.88,0.29-4.25c4.35,0,8.62,0,13.05,0
				C943.6,545.69,943.6,564.24,943.6,583.02z"/>
			<path class="st0" d="M1209.88,525.07c17.16,0.02,30.56,13.36,30.51,30.38c-0.05,16.97-13.6,30.38-30.66,30.32
				c-16.92-0.06-30.32-13.65-30.28-30.72C1179.5,538.42,1193.06,525.05,1209.88,525.07z M1209.89,571.98
				c9.26,0.01,16.76-7.29,16.82-16.39c0.06-9.28-7.75-17.16-16.85-17c-9.23,0.15-16.57,7.53-16.61,16.67
				C1193.21,564.7,1200.45,571.97,1209.89,571.98z"/>
			<path class="st0" d="M997.88,533.61c-3.11,3.08-6.21,6.16-9.46,9.38c-2.38-2.62-4.83-5.43-10.39-5.55
				c-1.5-0.01-3.52,0.02-5.19,0.79c-3.12,1.37-3.36,5.65-0.45,7.43c1.73,1.06,3.75,1.76,5.72,2.29c6.45,1.54,11.08,3.79,15.81,7.52
				c10.88,8.55,5.79,24.61-4.72,28.73c-9.36,3.68-24.75,0.39-31.71-7.42l9.51-9.26c2.91,3.69,7.68,5.68,12.63,5.57
				c1.29-0.03,2.7-0.21,3.86-0.76c3.44-1.62,3.8-5.35,0.48-7.11c-3.18-1.68-6.88-2.35-10.15-3.89c-4.01-1.88-8.13-3.79-11.65-6.41
				c-9.17-6.84-5.69-20.93,1.26-25.97C972.59,522.28,991.04,524.66,997.88,533.61z"/>
			<path class="st0" d="M1311.89,511.47c0,7.47,0,14.58,0,21.99c2.82,0,5.43,0,8.12,0c1.16,4.64,2.25,9.02,3.44,13.82
				c-3.94,0-7.61,0-11.49,0c0,6.56-0.15,12.77,0.07,18.95c0.09,2.52,2.45,4.17,5.05,4.23c0.43,0.01,8.67,0.01,9.1,0.01
				c0,0,2.43,9.43,3.42,13.43c-5.45,0-10.8,0.52-16.01-0.12c-8.12-1.01-14.33-8.02-15.2-16.16c-0.17-1.56-0.27-3.14-0.27-4.72
				c-0.02-15.11-0.07-48.18-0.07-48.18s0.76-0.16,2.78-0.58C1304.4,513.41,1307.9,512.45,1311.89,511.47z"/>
			<path class="st0" d="M1268.33,526.7c0.08,1.29,0.16,2.42,0.27,3.96c4.99-3.29,9.95-6.07,16.18-5.62c0,4.37,0,8.72,0,13.27
				c-1.4,0.29-2.94,0.51-4.42,0.93c-6.9,1.98-11.86,8.52-11.89,15.75c-0.04,9.62-0.01,19.25-0.01,29.08c-4.56,0-8.99,0-13.62,0
				c0-19.05,0-38.15,0-57.37C1259.36,526.7,1263.8,526.7,1268.33,526.7z"/>
		</g>
		<g>
			<path class="st1" d="M616.92,582.47c-1.76-2.34-3.39-4.78-4.85-7.33C613.53,577.68,615.16,580.13,616.92,582.47z"/>
			<path class="st1" d="M611.82,574.69c-0.17-0.3-0.34-0.6-0.51-0.91C611.48,574.08,611.65,574.38,611.82,574.69z"/>
			<path class="st1" d="M660.32,585.92l0.61-0.12c6.19-1.25,12.5-1.25,12.87-1.26h0.01c0.35,0,6.67,0.01,12.87,1.26l0.61,0.12
				c1.22,0.24,2.61,0.53,4.14,0.81l-18.29-32.4l-0.01,0.01l18.29,32.38c-1.52-0.28-2.92-0.56-4.14-0.81l-0.61-0.12
				c-6.2-1.25-12.52-1.25-12.87-1.26l0,0c-0.36,0.01-6.67,0.01-12.87,1.26L660.32,585.92c-1.61,0.32-3.51,0.7-5.63,1.07V587
				C656.82,586.63,658.71,586.24,660.32,585.92z"/>
			<path class="st1" d="M726.3,586.65c-3.17,0.48-6.81,0.97-10.82,1.39c-7.04,0.74-13.6,0.26-19.06-0.5v0.01
				c5.46,0.77,12.02,1.24,19.06,0.5C719.49,587.63,723.14,587.14,726.3,586.65c10.96-12.44,17.62-28.76,17.62-46.65
				c0-19.49-7.9-37.15-20.68-49.92c12.78,12.78,20.68,30.42,20.68,49.92C743.91,557.89,737.26,574.21,726.3,586.65z"/>
			<path class="st1" d="M721.81,591.31c-1.86,0.24-3.83,0.47-5.91,0.69c-2.63,0.28-5.19,0.39-7.66,0.39
				c-9.01,0-16.7-1.56-21.74-2.58l-0.61-0.12c-5.83-1.18-12.02-1.17-12.08-1.18c-0.01,0-0.01,0-0.01,0l0,0
				c-0.14,0-6.28,0.01-12.08,1.18l-0.61,0.12c-5.03,1.02-12.73,2.58-21.74,2.58c-2.47,0-5.03-0.12-7.66-0.39
				c-2.51-0.26-4.86-0.55-7.05-0.84c-2.39-0.32-4.57-0.66-6.52-0.98c-2.73-0.45-5-0.88-6.74-1.23c0,0.01,0.01,0.01,0.01,0.01
				c1.74,0.35,4,0.78,6.73,1.22c1.95,0.32,4.14,0.65,6.52,0.98c2.19,0.29,4.54,0.58,7.05,0.84c2.63,0.28,5.19,0.39,7.66,0.39
				c9.01,0,16.71-1.56,21.74-2.58l0.61-0.12c5.8-1.17,11.95-1.18,12.08-1.18h0.01c0.01,0,0.01,0,0.01,0
				c0.06,0.02,6.25,0.01,12.08,1.18l0.61,0.12c5.03,1.02,12.73,2.58,21.74,2.58c2.46,0,5.03-0.12,7.66-0.39
				C717.97,591.79,719.94,591.56,721.81,591.31c2.35-0.3,4.53-0.62,6.49-0.93c2.64-0.42,4.91-0.83,6.73-1.18
				c-2.79,3.5-5.87,6.74-9.21,9.72h0.01c3.34-2.98,6.42-6.23,9.22-9.73c-1.82,0.35-4.09,0.76-6.73,1.18
				C726.35,590.68,724.17,591,721.81,591.31z"/>
			<path class="st1" d="M617.46,583.17c-0.07-0.1-0.15-0.19-0.23-0.29C617.3,582.98,617.38,583.08,617.46,583.17z"/>
			<path class="st1" d="M673.31,461.06c-43.59,0-78.94,35.34-78.94,78.94c0,16.37,4.99,31.57,13.51,44.18
				c0.16,0,0.32,0.01,0.48,0.05c0.04,0.01,2.15,0.52,5.79,1.21c-10-12.96-15.43-28.78-15.43-45.43c0-19.92,7.76-38.65,21.85-52.74
				c14.09-14.09,32.82-21.85,52.74-21.85s38.65,7.76,52.74,21.85c14.09,14.09,21.85,32.81,21.85,52.74
				c0,16.74-5.48,32.63-15.58,45.64c3.1-0.57,5.28-1.04,6.29-1.27c8.61-12.65,13.65-27.93,13.65-44.38
				C752.25,496.4,716.91,461.06,673.31,461.06z"/>
			<path class="st1" d="M663.45,613.22c4.97-1.16,10.24-1.17,10.35-1.17h0.01h0.01c0.11,0,5.38,0.01,10.35,1.17l0.54,0.12
				c2.96,0.69,6.97,1.62,11.68,2.16c0.01,0,0.01,0,0.01,0c-4.72-0.53-8.74-1.47-11.7-2.16l-0.53-0.12
				c-4.97-1.16-10.24-1.17-10.35-1.17c-0.01,0-0.01,0-0.01,0l0,0C673.68,612.05,668.41,612.06,663.45,613.22l-0.53,0.12
				c-3.11,0.73-7.4,1.72-12.44,2.24l0.01,0.01c5.03-0.52,9.32-1.51,12.43-2.24L663.45,613.22z"/>
			<path class="st1" d="M705.95,611.88c-8.3,0.35-15.55-1.3-20.19-2.39c-0.05-0.01-0.12-0.02-0.17-0.04l-0.53-0.12
				c-5.41-1.26-10.93-1.27-11.26-1.27l0,0c-0.32,0-5.84,0.01-11.26,1.27l-0.53,0.12c-0.19,0.04-0.4,0.09-0.6,0.14
				c-4.86,1.13-12.37,2.77-20.89,2.22c-4.94-2.26-9.6-5.02-13.93-8.2h-0.01c4.33,3.19,9,5.95,13.94,8.21
				c8.52,0.55,16.03-1.09,20.89-2.22c0.2-0.04,0.41-0.09,0.6-0.14l0.53-0.12c5.41-1.26,10.93-1.27,11.26-1.27l0,0
				c0.32,0,5.84,0.01,11.26,1.27l0.53,0.12c0.05,0.01,0.12,0.02,0.17,0.04C690.41,610.58,697.66,612.25,705.95,611.88
				c4.93-2.23,9.58-4.97,13.91-8.11c-0.01,0-0.03,0.01-0.05,0.01C715.5,606.92,710.86,609.64,705.95,611.88z"/>
			<path class="st1" d="M669.45,547.8l0.03,0.05l1.22,2.17l-20.96,37.7c-5.16,0.64-11.18,0.98-17.61,0.31
				c-4.49-0.47-8.53-1.03-11.95-1.57l0.01,0.01c3.42,0.54,7.46,1.1,11.95,1.57c6.43,0.67,12.46,0.34,17.61-0.31l20.96-37.7
				l-1.22-2.17L669.45,547.8h7.36l0,0H669.45z"/>
			<path class="st0" d="M731.95,481.37c-15.66-15.66-36.48-24.29-58.63-24.29s-42.97,8.63-58.63,24.29S590.4,517.85,590.4,540
				c0,21.63,8.23,42,23.21,57.52c0.36,0.37,0.72,0.74,1.08,1.11c1.34,1.34,2.72,2.62,4.13,3.86c3.33,2.91,6.86,5.54,10.55,7.85
				c3.24,2.04,6.61,3.84,10.09,5.39c10.51,4.7,22,7.18,33.85,7.18c11.79,0,23.21-2.45,33.67-7.1c3.41-1.52,6.72-3.27,9.92-5.25
				c3.75-2.32,7.33-4.96,10.7-7.89c1.49-1.29,2.94-2.64,4.35-4.05c0.29-0.29,0.58-0.59,0.86-0.88
				c15.11-15.56,23.42-36.02,23.42-57.75C756.23,517.85,747.61,497.03,731.95,481.37z M673.32,618.94c-7.94,0-15.61-1.18-22.84-3.36
				c0.01,0,0.01,0,0.01,0l-0.01-0.01c5.04-0.52,9.32-1.51,12.44-2.24l0.53-0.12c4.97-1.16,10.24-1.17,10.35-1.17l0,0c0,0,0,0,0.01,0
				c0.11,0,5.38,0.01,10.35,1.17l0.53,0.12c2.96,0.69,6.98,1.63,11.7,2.16c0,0,0,0-0.01,0c0.01,0,0.01,0,0.02,0.01
				C689.1,617.74,681.35,618.94,673.32,618.94z M705.96,611.89c-8.3,0.36-15.55-1.3-20.19-2.39c-0.05-0.01-0.12-0.03-0.17-0.04
				l-0.53-0.12c-5.41-1.26-10.93-1.27-11.26-1.27l0,0c-0.32,0-5.84,0.01-11.26,1.27l-0.53,0.12c-0.19,0.04-0.4,0.09-0.6,0.14
				c-4.86,1.13-12.37,2.77-20.89,2.22c-4.95-2.26-9.61-5.02-13.94-8.21h0.01c-0.01-0.01-0.01-0.01-0.01-0.01
				c1.63,0.2,3.35,0.4,5.14,0.59c2.63,0.28,5.19,0.39,7.66,0.39c1.74,0,3.43-0.06,5.07-0.16c6.82-0.42,12.62-1.59,16.68-2.41
				l0.61-0.12c5.8-1.17,11.95-1.18,12.08-1.18h0.01c0.01,0,0.01,0,0.01,0c0.06-0.01,6.25,0.01,12.08,1.18l0.61,0.12
				c3.89,0.79,9.37,1.89,15.82,2.36c1.89,0.13,3.87,0.22,5.91,0.22c2.46,0,5.03-0.12,7.65-0.4c1.36-0.14,2.68-0.29,3.95-0.45
				c-0.01,0.01-0.02,0.02-0.03,0.02c0.01,0,0.03-0.01,0.05-0.01C715.53,606.91,710.88,609.65,705.96,611.89z M725.84,598.92
				L725.84,598.92l-0.01,0.01c-3.06,0.46-6.54,0.92-10.36,1.32c-2.02,0.21-3.99,0.31-5.92,0.35c-9.18,0.16-17.15-1.44-22.26-2.48
				l-0.61-0.12c-6.2-1.25-12.52-1.26-12.87-1.26c-0.27-0.01-6.63,0-12.88,1.26l-0.61,0.12c-5.3,1.08-13.67,2.76-23.29,2.45
				c-1.6-0.05-3.23-0.15-4.9-0.32c-4.31-0.45-8.21-0.99-11.54-1.5c-3.33-2.99-6.41-6.26-9.19-9.78h0.01c0,0,0,0,0-0.01
				c1.74,0.35,4.01,0.78,6.74,1.23c1.95,0.32,4.14,0.65,6.52,0.98c2.19,0.29,4.54,0.58,7.05,0.84c2.63,0.27,5.19,0.39,7.66,0.39
				c9.01,0,16.71-1.55,21.74-2.58l0.61-0.12c5.8-1.17,11.94-1.18,12.08-1.18h0.01l0,0c0.06,0.01,6.25,0.01,12.08,1.18l0.61,0.12
				c5.04,1.02,12.73,2.58,21.74,2.58c2.46,0,5.03-0.11,7.66-0.39c2.08-0.22,4.04-0.45,5.91-0.69c2.36-0.31,4.54-0.63,6.51-0.94
				c2.64-0.42,4.91-0.83,6.73-1.18C732.26,592.69,729.17,595.94,725.84,598.92z M654.68,586.99l18.44-32.67l0.01,0.02l0.01-0.01
				l18.29,32.4c-1.52-0.28-2.92-0.56-4.14-0.81l-0.61-0.12c-6.2-1.25-12.52-1.26-12.87-1.26l0,0c-0.37,0.01-6.67,0.01-12.87,1.26
				l-0.61,0.12C658.71,586.24,656.82,586.63,654.68,586.99l0.01-0.01C654.69,586.99,654.69,586.99,654.68,586.99z M675.56,550.02
				l1.22-2.16l0.03-0.06h-7.36l0.03,0.05l1.22,2.17l-20.96,37.7c-5.16,0.65-11.18,0.98-17.61,0.31c-4.5-0.47-8.53-1.03-11.95-1.57
				l-0.01-0.01l0,0c-0.94-1.07-1.84-2.17-2.71-3.3c-0.07-0.1-0.15-0.19-0.23-0.29c-0.1-0.13-0.2-0.27-0.31-0.41
				c-1.76-2.34-3.39-4.78-4.85-7.33c-0.08-0.15-0.17-0.3-0.25-0.45c-0.17-0.3-0.34-0.6-0.51-0.91c-5.48-10.03-8.59-21.54-8.59-33.78
				c0-38.99,31.61-70.6,70.6-70.6c19.49,0,37.15,7.9,49.92,20.68c12.78,12.78,20.68,30.43,20.68,49.92
				c0,17.88-6.65,34.21-17.61,46.65c-3.17,0.48-6.81,0.97-10.82,1.39c-7.04,0.74-13.6,0.26-19.06-0.5l0,0l0,0L675.56,550.02z
				 M732.31,585.64c10.11-13.01,15.58-28.9,15.58-45.64c0-19.92-7.76-38.65-21.85-52.74c-14.09-14.09-32.82-21.85-52.74-21.85
				s-38.65,7.76-52.74,21.85c-14.09,14.09-21.85,32.82-21.85,52.74c0,16.65,5.42,32.46,15.43,45.43c-3.64-0.69-5.74-1.19-5.79-1.21
				c-0.16-0.04-0.32-0.05-0.48-0.05c-8.53-12.61-13.51-27.81-13.51-44.18c0-43.6,35.34-78.94,78.94-78.94s78.94,35.34,78.94,78.94
				c0,16.45-5.04,31.73-13.65,44.38C737.59,584.6,735.41,585.08,732.31,585.64z"/>
			<path class="st0" d="M709.56,600.59c-9.19,0.16-17.15-1.44-22.26-2.48l-0.61-0.12c-6.2-1.25-12.52-1.26-12.87-1.26
				c-0.27-0.01-6.63,0-12.88,1.26l-0.61,0.12c-5.3,1.07-13.67,2.75-23.29,2.45c-1.6-0.05-3.23-0.15-4.9-0.32
				c-4.31-0.45-8.21-0.98-11.54-1.5c-3.33-2.99-6.41-6.26-9.19-9.77c-0.01,0-0.01,0-0.01,0c2.78,3.52,5.86,6.78,9.19,9.78
				c3.33,0.52,7.23,1.05,11.54,1.5c1.66,0.17,3.3,0.27,4.9,0.32c9.62,0.31,17.99-1.37,23.29-2.45l0.61-0.12
				c6.24-1.26,12.61-1.26,12.88-1.26c0.35,0,6.67,0.01,12.87,1.26l0.61,0.12C692.4,599.15,700.36,600.75,709.56,600.59
				c1.92-0.03,3.89-0.13,5.91-0.34c3.82-0.4,7.3-0.86,10.36-1.32v-0.01c-3.06,0.46-6.53,0.92-10.35,1.32
				C713.46,600.45,711.49,600.56,709.56,600.59z"/>
			<path class="st0" d="M639.37,604.6c1.74,0,3.43-0.06,5.07-0.16c6.82-0.42,12.62-1.59,16.68-2.41l0.61-0.12
				c5.8-1.17,11.94-1.18,12.08-1.18h0.01l0,0c0.06-0.01,6.25,0.01,12.08,1.18l0.61,0.12c3.89,0.79,9.37,1.89,15.82,2.36
				c1.89,0.13,3.87,0.22,5.91,0.22c2.46,0,5.03-0.11,7.66-0.39c1.35-0.14,2.65-0.29,3.9-0.44c0.01-0.01,0.02-0.01,0.03-0.02
				c-1.28,0.15-2.59,0.3-3.95,0.45c-2.62,0.28-5.18,0.4-7.65,0.4c-2.05,0-4.02-0.08-5.91-0.22c-6.45-0.46-11.93-1.57-15.82-2.36
				l-0.61-0.12c-5.83-1.18-12.02-1.19-12.08-1.18c0,0,0,0-0.01,0l0,0c-0.13,0-6.28,0.01-12.08,1.18l-0.61,0.12
				c-4.06,0.82-9.86,1.99-16.68,2.41C642.79,604.53,641.1,604.59,639.37,604.6c-2.48-0.01-5.04-0.12-7.67-0.4
				c-1.79-0.19-3.5-0.39-5.14-0.59c0,0,0.01,0,0.01,0.01c1.63,0.2,3.34,0.41,5.13,0.59C634.34,604.48,636.9,604.6,639.37,604.6z"/>
			<polygon class="st0" points="696.42,587.54 675.56,550.03 676.78,547.87 676.82,547.8 676.81,547.8 676.77,547.86 675.56,550.02 
							"/>
			<path class="st0" d="M673.32,469.41c19.49,0,37.14,7.9,49.92,20.68C710.46,477.31,692.81,469.4,673.32,469.41
				c-38.99,0-70.6,31.6-70.6,70.59c0,12.24,3.11,23.74,8.59,33.78c-5.47-10.03-8.59-21.54-8.59-33.77
				C602.72,501.02,634.33,469.41,673.32,469.41z"/>
			<path class="st0" d="M617.23,582.88c-0.1-0.13-0.2-0.27-0.31-0.41C617.03,582.61,617.12,582.75,617.23,582.88z"/>
			<path class="st0" d="M620.17,586.47L620.17,586.47c-0.94-1.07-1.84-2.17-2.71-3.3C618.33,584.3,619.23,585.4,620.17,586.47z"/>
			<path class="st0" d="M612.07,575.13c-0.08-0.15-0.17-0.3-0.25-0.45C611.9,574.84,611.98,574.99,612.07,575.13z"/>
			<path class="st0" d="M673.12,554.32l-18.44,32.67c0,0,0.01,0,0.01-0.01l18.43-32.64V554.32z"/>
		</g>
		<circle class="st2" cx="673.31" cy="532.23" r="9.96"/>
	</g>
	<g class="st3">
		<path class="st0" d="M628.8,594.54V455.15h23.53v60.42h69.19v-60.42h23.53v139.38h-23.53V537.5h-69.19v57.03L628.8,594.54
			L628.8,594.54z"/>
		<path class="st0" d="M851.53,594.54h-20.34v-14.16c-8.77,10.5-20.54,15.75-35.29,15.75c-11.04,0-20.17-3.12-27.42-9.37
			s-10.87-14.59-10.87-25.02s3.85-18.25,11.57-23.43c7.71-5.18,18.15-7.78,31.31-7.78h28.91v-3.99c0-14.09-7.85-21.14-23.53-21.14
			c-9.84,0-20.07,3.59-30.71,10.77l-9.97-13.96c12.89-10.23,27.52-15.35,43.87-15.35c12.49,0,22.7,3.16,30.61,9.47
			c7.91,6.32,11.86,16.25,11.86,29.81L851.53,594.54L851.53,594.54z M829.19,555.05v-8.97h-25.12c-16.09,0-24.13,5.05-24.13,15.15
			c0,5.18,1.99,9.14,5.98,11.86c3.99,2.73,9.54,4.09,16.65,4.09c7.11,0,13.33-1.99,18.64-5.98
			C826.53,567.22,829.19,561.83,829.19,555.05z"/>
		<path class="st0" d="M943.25,562.83c0,10.1-3.66,18.18-10.97,24.23s-16.68,9.07-28.12,9.07c-7.71,0-15.72-1.4-24.03-4.19
			c-8.31-2.79-15.65-6.71-22.03-11.76l10.77-17.35c12.36,9.31,24.33,13.96,35.89,13.96c5.05,0,9.04-1.16,11.96-3.49
			c2.92-2.32,4.39-5.28,4.39-8.87c0-5.32-7.05-10.1-21.14-14.36c-1.07-0.4-1.86-0.66-2.39-0.8c-22.07-5.98-33.1-15.95-33.1-29.91
			c0-9.84,3.82-17.71,11.47-23.63c7.64-5.91,17.58-8.87,29.81-8.87s23.79,3.59,34.7,10.77l-8.37,16.55
			c-8.64-5.71-18.01-8.57-28.12-8.57c-5.32,0-9.64,0.97-12.96,2.89c-3.32,1.93-4.99,4.82-4.99,8.67c0,3.46,1.73,5.98,5.18,7.58
			c2.39,1.2,5.75,2.33,10.07,3.39c4.32,1.07,8.14,2.13,11.47,3.19c3.32,1.07,6.55,2.26,9.67,3.59s6.48,3.19,10.07,5.58
			C939.66,545.28,943.25,552.73,943.25,562.83z"/>
		<path class="st0" d="M975.95,537.11v57.43h-22.33V446.78h22.33v61.02c3.19-6.51,8.01-11.63,14.46-15.35s13.39-5.58,20.84-5.58
			c11.96,0,21.64,3.66,29.01,10.97c7.38,7.31,11.07,17.88,11.07,31.7v65H1029v-58.23c0-19.54-8.11-29.31-24.33-29.31
			c-7.71,0-14.43,2.56-20.14,7.68C978.81,519.79,975.95,527.27,975.95,537.11z"/>
		<path class="st0" d="M1124.3,486.86c14.22,0,26.39,4.92,36.49,14.76s15.15,22.93,15.15,39.28c0,16.35-5.02,29.65-15.06,39.88
			c-10.04,10.24-21.73,15.35-35.09,15.35s-25.36-5.85-35.99-17.55v54.64h-22.33V488.45h22.33V507
			C1098.58,493.57,1110.08,486.86,1124.3,486.86z M1089.41,541.69c0,10.1,3.06,18.38,9.17,24.83s13.56,9.67,22.33,9.67
			c8.77,0,16.42-3.19,22.93-9.57s9.77-14.66,9.77-24.83c0-10.17-3.19-18.61-9.57-25.32c-6.38-6.71-14.03-10.07-22.93-10.07
			c-8.91,0-16.42,3.36-22.53,10.07C1092.47,523.18,1089.41,531.59,1089.41,541.69z"/>
		<path class="st0" d="M1275.25,580.28c-10.64,10.57-23.93,15.85-39.88,15.85s-29.25-5.28-39.88-15.85
			c-10.64-10.57-15.95-23.5-15.95-38.78c0-15.29,5.32-28.22,15.95-38.78c10.63-10.57,23.93-15.85,39.88-15.85
			s29.24,5.28,39.88,15.85c10.63,10.57,15.95,23.5,15.95,38.78S1285.88,569.71,1275.25,580.28z M1211.34,566.52
			c6.31,6.45,14.32,9.67,24.03,9.67c9.7,0,17.71-3.22,24.03-9.67c6.31-6.45,9.47-14.79,9.47-25.02c0-10.24-3.16-18.58-9.47-25.03
			c-6.32-6.45-14.33-9.67-24.03-9.67c-9.71,0-17.72,3.22-24.03,9.67c-6.32,6.45-9.47,14.79-9.47,25.03
			C1201.87,551.73,1205.03,560.07,1211.34,566.52z"/>
	</g>
</g>
</svg>
