<svg xmlns="http://www.w3.org/2000/svg" width="32" height="32" viewBox="0 0 32 32">
  <defs>
    <style>
      .cls-1 {
        fill: #fff;
      }

      .cls-2 {
        fill: none;
        opacity: 0;
      }
    </style>
  </defs>
  <g id="logo-twitter" transform="translate(-585.25 -32)">
    <path id="twitter" class="cls-1" d="M136.43,186.362a14.463,14.463,0,0,0,6.414,1.661s-1.114-3.9,2.329-5.63a4.784,4.784,0,0,1,5.812,1.186s.6-.165,1.047-.33,1.094-.46,1.094-.46l-1.062,1.9,1.635-.174a6.389,6.389,0,0,1-.856.9,12.72,12.72,0,0,0-.923.914,15.238,15.238,0,0,1-2.228,8.309,13.307,13.307,0,0,1-10.262,6.241,12.96,12.96,0,0,1-7.629-1.423,13.6,13.6,0,0,0,3.307-.61,19.138,19.138,0,0,0,3.139-1.8,12.1,12.1,0,0,1-3.579-1.73,5.383,5.383,0,0,1-1.18-1.458l2.6-.035s-2.734-1.458-3.509-2.613a5.382,5.382,0,0,1-.877-2.271l2,.81a11.449,11.449,0,0,1-1.9-4.033,4.585,4.585,0,0,1,.3-2.714S132.953,184.6,136.43,186.362Z" transform="translate(458.55 -143.844)"/>
    <rect id="矩形_14" data-name="矩形 14" class="cls-2" width="32" height="32" transform="translate(585.25 32)"/>
  </g>
</svg>
