<?xml version="1.0" encoding="utf-8"?>
<!-- Generator: Adobe Illustrator 25.0.0, SVG Export Plug-In . SVG Version: 6.00 Build 0)  -->
<svg version="1.1" id="图层_1" xmlns="http://www.w3.org/2000/svg" xmlns:xlink="http://www.w3.org/1999/xlink" x="0px" y="0px"
	 viewBox="0 0 1920 1080" style="enable-background:new 0 0 1920 1080;" xml:space="preserve">
<style type="text/css">
	.st0{fill:#151F41;}
	.st1{fill:#BF0F23;}
	.st2{fill:none;}
	.st3{fill:#1C2445;}
</style>
<g>
	<g>
		<path class="st0" d="M636.32,521.54c0,17.09,0,33.57,0,50.05c0,11.66-5.07,16.85-16.65,16.79c-18.49-0.09-36.98-0.27-55.47-0.42
			c-0.62-0.01-1.24-0.14-2.79-0.32c29.91-18.95,46.99-45.03,47.32-80.1c0.33-35.52-18.76-61-47.69-80.94c0,0,3.71-0.09,4.93-0.09
			c17.17-0.05,34.33-0.11,51.5-0.1c12.32,0.01,18.83,6.51,18.84,18.72c0.02,14.17,0,28.33,0,42.5c0,1.78,0,3.56,0,5.66
			c22.86,0,45.08,0,67.8,0c0-22.21,0-44.14,0-66.48c9.21,0,17.93,0,27.16,0c0,53.65,0,107.34,0,161.34c-8.8,0-17.54,0-26.94,0
			c0-22.17,0-44.23,0-66.6C681.45,521.54,659.21,521.54,636.32,521.54z"/>
		<path class="st0" d="M1239.57,543.13c3.97-9.68,7.28-17.98,10.88-26.17c0.4-0.91,0.78-1.78,0.78-1.78s13.04-0.07,15.31-0.36
			c16.27-2.07,27.53-15.72,26.97-32.37c-0.5-14.92-13.7-28.07-29.37-28.69c-10.15-0.4-20.33,0.06-30.48-0.16
			c-4.36-0.1-3.78,2.63-3.78,5.28c0,25.82,0,51.65,0,77.47c0,15.33,0,30.66,0,45.98c0,1.8,0,3.61,0,5.8c-21.56,0-42.57,0-64.47,0
			c23.2-22.35,36.91-48.59,36.88-80.66c-0.03-31.94-13.64-58.06-37.73-81c9.39,0,17.28,0.06,25.17-0.01
			c21.15-0.18,42.3-0.65,63.44-0.52c10.43,0.06,20.89,0.32,30.96,4.28c23.38,9.21,38.98,33.54,36.99,58.38
			c-2.08,25.87-21.26,48.32-46.45,52.65C1263.64,543.14,1252.17,542.53,1239.57,543.13z"/>
		<path class="st0" d="M1017.57,426.6c8.92,0,17.52,0,26.84,0c0,18,0,54.51,0,54.51c27.88-24.9,75.73-11.72,81.16,33.34
			c2.91,24.1,0.52,48.85,0.52,73.65c-8.58,0-17.32,0-26.81,0c0-1.79,0.01-43.63-0.04-62.79c-0.04-15.78-12.22-28.82-27.36-28.51
			c-18.19,0.36-27.71,15.06-27.5,28.3c0.3,19.16,0.08,61.04,0.08,63.09c-9.2,0-17.8,0-26.9,0
			C1017.57,534.53,1017.57,480.86,1017.57,426.6z"/>
		<path class="st0" d="M873.93,585.94c-8.87,0-17.3,0-26.21,0c-0.09-1.98-0.17-39.16-0.27-55.99c-0.1-16.83-12.72-31.14-28.5-32.52
			c-18.02-1.58-32.8,9.15-36.32,26.38c-4.71,23.05,17.14,43.14,40.75,37.48c1.1-0.26,2.2-0.54,3.7-0.91
			c3.15,7.81,6.24,15.46,9.3,23.04c-12.79,8.34-44.33,9.56-64.15-10.9c-19.66-20.29-22.59-54.21-6.24-77.88
			c9.17-13.28,21.84-21.35,37.82-23.66c15.58-2.25,30.07,1,43.33,11.19c0.23-3.4,0.4-5.79,0.59-8.54c8.74,0,17.3,0,26.21,0
			C873.93,510.99,873.93,548.23,873.93,585.94z"/>
		<path class="st0" d="M1408.55,469.58c34.46,0.05,61.36,26.83,61.26,61c-0.1,34.08-27.31,60.99-61.55,60.87
			c-33.97-0.12-60.87-27.41-60.8-61.68C1347.54,496.38,1374.78,469.54,1408.55,469.58z M1408.58,563.77
			c18.6,0.03,33.64-14.63,33.76-32.9c0.12-18.63-15.56-34.45-33.84-34.14c-18.53,0.31-33.26,15.11-33.34,33.47
			C1375.08,549.15,1389.61,563.74,1408.58,563.77z"/>
		<path class="st0" d="M982.92,486.74c-6.25,6.19-12.47,12.36-19,18.84c-4.77-5.27-9.7-10.91-20.87-11.14
			c-3.02-0.03-7.07,0.05-10.42,1.58c-6.26,2.76-6.74,11.35-0.9,14.91c3.48,2.12,7.53,3.53,11.49,4.6
			c12.94,3.09,22.24,7.61,31.75,15.09c21.85,17.17,11.62,49.4-9.48,57.69c-18.8,7.38-49.7,0.79-63.67-14.89l19.09-18.6
			c5.85,7.41,15.41,11.41,25.35,11.18c2.6-0.06,5.42-0.43,7.74-1.52c6.9-3.26,7.63-10.75,0.96-14.27
			c-6.38-3.37-13.81-4.72-20.38-7.8c-8.05-3.78-16.32-7.6-23.39-12.87c-18.42-13.73-11.43-42.03,2.52-52.15
			C932.14,463.99,969.18,468.76,982.92,486.74z"/>
		<path class="st0" d="M1613.36,442.27c0,15,0,29.28,0,44.15c5.66,0,10.9,0,16.3,0c2.32,9.32,4.51,18.11,6.91,27.75
			c-7.92,0-15.27,0-23.06,0c0,13.17-0.31,25.63,0.15,38.05c0.19,5.05,4.92,8.38,10.14,8.49c0.86,0.02,17.41,0.03,18.27,0.03
			c0,0,4.88,18.94,6.86,26.96c-10.94,0-21.68,1.05-32.14-0.24c-16.31-2.02-28.77-16.11-30.52-32.45c-0.34-3.14-0.54-6.31-0.55-9.47
			c-0.04-30.33-0.14-96.73-0.14-96.73s1.52-0.32,5.58-1.16C1598.31,446.18,1605.35,444.24,1613.36,442.27z"/>
		<path class="st0" d="M1525.9,472.85c0.17,2.58,0.33,4.85,0.54,7.95c10.01-6.6,19.98-12.18,32.48-11.29c0,8.77,0,17.5,0,26.64
			c-2.81,0.58-5.9,1.02-8.87,1.87c-13.85,3.97-23.81,17.11-23.87,31.63c-0.09,19.32-0.02,38.64-0.02,58.38c-9.16,0-18.05,0-27.34,0
			c0-38.24,0-76.6,0-115.18C1507.89,472.85,1516.79,472.85,1525.9,472.85z"/>
	</g>
	<g>
		<circle class="st1" cx="331.28" cy="483.97" r="20"/>
		<g>
			<g>
				<path class="st2" d="M428.63,602.58c-3.74,0.49-7.69,0.96-11.86,1.39c-5.28,0.55-10.43,0.79-15.37,0.79
					c-18.09,0-33.54-3.12-43.64-5.17l-1.23-0.25c-11.71-2.36-24.13-2.33-24.26-2.37c0,0,0,0-0.01,0c0,0,0,0,0,0s0,0,0,0
					c0,0-0.01,0-0.01,0c-0.27,0-12.61,0.02-24.26,2.37l-1.23,0.25c-10.1,2.04-25.56,5.17-43.64,5.17c-4.95,0-10.09-0.23-15.37-0.79
					c-5.03-0.53-9.75-1.1-14.15-1.69c-4.79-0.65-9.18-1.31-13.1-1.96c-5.48-0.9-10.04-1.76-13.54-2.46
					c5.59,7.06,11.77,13.62,18.46,19.63c6.69,1.04,14.51,2.11,23.17,3.02c3.34,0.35,6.62,0.55,9.83,0.65
					c19.32,0.62,36.12-2.76,46.76-4.92l1.23-0.25c12.53-2.52,25.31-2.53,25.85-2.52c0,0,0,0,0,0c0.7,0,13.39,0.02,25.84,2.52
					l1.23,0.25c10.27,2.07,26.26,5.29,44.7,4.97c3.87-0.07,7.84-0.28,11.89-0.7c7.66-0.8,14.65-1.73,20.79-2.65
					c6.7-5.98,12.89-12.51,18.5-19.53c-3.66,0.71-8.21,1.53-13.52,2.37C437.75,601.32,433.37,601.96,428.63,602.58z"/>
				<path class="st2" d="M401.4,629.25c-4.11,0-8.07-0.17-11.87-0.44c-12.95-0.93-23.96-3.15-31.77-4.73l-1.23-0.25
					c-11.71-2.36-24.13-2.38-24.26-2.37c0,0,0,0-0.01,0c0,0,0,0,0,0s0,0,0,0c0,0-0.01,0-0.01,0c-0.27,0-12.61,0.02-24.26,2.37
					l-1.23,0.25c-8.15,1.65-19.79,4-33.48,4.84c-3.28,0.2-6.67,0.32-10.17,0.32c-4.95,0-10.09-0.23-15.37-0.79
					c-3.59-0.38-7.03-0.78-10.31-1.19c8.7,6.4,18.07,11.94,27.99,16.48c17.11,1.11,32.19-2.19,41.95-4.46
					c0.4-0.09,0.82-0.19,1.2-0.28l1.07-0.25c10.87-2.53,21.95-2.55,22.6-2.55c0,0,0,0,0,0c0,0,0,0,0,0c0,0,0.01,0,0.01,0
					c0,0,0,0,0,0c0.65,0,11.73,0.02,22.6,2.55l1.07,0.25c0.11,0.03,0.24,0.06,0.35,0.08c9.31,2.17,23.87,5.5,40.54,4.79
					c9.88-4.5,19.21-9.98,27.88-16.32c-2.56,0.31-5.2,0.61-7.94,0.9C411.49,629.01,406.34,629.25,401.4,629.25z"/>
				<path class="st2" d="M415.94,596.01c8.05-0.84,15.36-1.82,21.72-2.79c22-24.98,35.36-57.75,35.36-93.66
					c0-78.28-63.46-141.74-141.74-141.74s-141.74,63.46-141.74,141.74c0,35.73,13.23,68.37,35.04,93.3c6.87,1.09,14.98,2.21,24,3.15
					c12.91,1.35,25.01,0.67,35.36-0.62l42.09-75.7l-2.45-4.36l-0.06-0.11h0h14.79h0l-0.08,0.13l-2.44,4.33L377.67,595
					C388.63,596.54,401.8,597.49,415.94,596.01z"/>
				<path class="st2" d="M353.05,646.56c-9.97-2.32-20.56-2.34-20.78-2.34c0,0-0.01,0-0.01,0c0,0,0,0,0,0s0,0,0,0c0,0-0.01,0-0.01,0
					c-0.22,0-10.81,0.02-20.78,2.34l-1.06,0.25c-6.25,1.46-14.86,3.46-24.97,4.5c14.51,4.38,29.9,6.74,45.85,6.74
					c16.12,0,31.68-2.42,46.34-6.9c-9.48-1.07-17.55-2.95-23.5-4.34L353.05,646.56z"/>
				<path class="st2" d="M293.87,593.9c4.27-0.74,8.08-1.5,11.31-2.16l1.23-0.25c12.43-2.5,25.1-2.5,25.83-2.52c0,0,0,0,0,0
					c0,0,0.01,0,0.01,0c0,0,0,0,0,0c0,0,0,0,0,0c0.71,0.01,13.39,0.02,25.84,2.52l1.23,0.25c2.45,0.5,5.25,1.06,8.31,1.62
					l-36.74-65.05L293.87,593.9z"/>
				<path class="st3" d="M449,381.84c-31.44-31.44-73.25-48.76-117.72-48.76c-44.47,0-86.28,17.32-117.72,48.76
					s-48.76,73.25-48.76,117.72c0,43.43,16.53,84.32,46.59,115.49c0.72,0.75,1.44,1.49,2.17,2.23c2.69,2.69,5.46,5.27,8.3,7.75
					c6.69,5.85,13.77,11.12,21.19,15.77c6.51,4.09,13.28,7.7,20.26,10.82c21.11,9.44,44.16,14.42,67.97,14.42
					c23.68,0,46.6-4.91,67.6-14.25c6.85-3.05,13.5-6.57,19.91-10.55c7.52-4.66,14.71-9.95,21.49-15.84c2.99-2.59,5.9-5.3,8.73-8.13
					c0.59-0.59,1.16-1.18,1.73-1.77c30.34-31.24,47.03-72.31,47.03-115.95C497.76,455.09,480.44,413.28,449,381.84z M331.28,658.04
					c-15.94,0-31.33-2.36-45.85-6.74c10.11-1.04,18.72-3.04,24.97-4.5l1.06-0.25c9.98-2.32,20.56-2.34,20.78-2.34c0,0,0.01,0,0.01,0
					c0,0,0,0,0,0s0,0,0,0c0,0,0,0,0.01,0c0.22,0,10.81,0.02,20.78,2.34l1.06,0.25c5.95,1.39,14.02,3.27,23.5,4.34
					C362.96,655.62,347.4,658.04,331.28,658.04z M396.83,643.89c-16.67,0.72-31.23-2.62-40.54-4.79c-0.11-0.03-0.24-0.06-0.35-0.08
					l-1.07-0.25c-10.87-2.53-21.95-2.55-22.6-2.55c0,0,0,0,0,0c0,0-0.01,0-0.01,0c0,0,0,0,0,0c0,0,0,0,0,0
					c-0.65,0-11.73,0.02-22.6,2.55l-1.07,0.25c-0.38,0.09-0.8,0.19-1.2,0.28c-9.76,2.27-24.84,5.57-41.95,4.46
					c-9.93-4.54-19.3-10.08-27.99-16.48c3.28,0.41,6.72,0.82,10.31,1.19c5.28,0.55,10.42,0.79,15.37,0.79
					c3.49,0,6.89-0.12,10.17-0.32c13.69-0.85,25.33-3.2,33.48-4.84l1.23-0.25c11.65-2.34,23.98-2.37,24.26-2.37c0,0,0.01,0,0.01,0
					c0,0,0,0,0,0s0,0,0,0c0,0,0,0,0.01,0c0.13-0.01,12.55,0.01,24.26,2.37l1.23,0.25c7.81,1.58,18.82,3.8,31.77,4.73
					c3.8,0.27,7.77,0.44,11.87,0.44c4.94,0,10.09-0.23,15.37-0.79c2.74-0.29,5.39-0.59,7.94-0.9
					C416.04,633.9,406.71,639.39,396.83,643.89z M436.73,617.85c-6.14,0.93-13.13,1.85-20.79,2.65c-4.05,0.42-8.02,0.64-11.89,0.7
					c-18.45,0.32-34.44-2.89-44.7-4.97l-1.23-0.25c-12.45-2.51-25.13-2.52-25.84-2.52c0,0,0,0,0,0c-0.54-0.01-13.32,0-25.85,2.52
					l-1.23,0.25c-10.65,2.15-27.45,5.53-46.76,4.92c-3.22-0.1-6.49-0.3-9.83-0.65c-8.66-0.91-16.48-1.97-23.17-3.02
					c-6.69-6.01-12.87-12.57-18.46-19.63c3.5,0.7,8.06,1.56,13.54,2.46c3.92,0.64,8.31,1.31,13.1,1.96
					c4.4,0.59,9.12,1.17,14.15,1.69c5.28,0.55,10.42,0.79,15.37,0.79c18.09,0,33.54-3.12,43.64-5.17l1.23-0.25
					c11.65-2.34,23.98-2.37,24.26-2.37c0,0,0.01,0,0.01,0c0,0,0,0,0,0s0,0,0,0c0,0,0,0,0.01,0c0.13,0.03,12.55,0.01,24.26,2.37
					l1.23,0.25c10.11,2.04,25.56,5.17,43.64,5.17c4.94,0,10.09-0.23,15.37-0.79c4.17-0.44,8.12-0.91,11.86-1.39
					c4.74-0.62,9.12-1.26,13.08-1.89c5.31-0.84,9.86-1.67,13.52-2.37C449.62,605.34,443.43,611.87,436.73,617.85z M335.8,519.69
					l2.44-4.33l0.08-0.13h0h-14.79h0l0.06,0.11l2.45,4.36l-42.09,75.7c-10.35,1.3-22.45,1.97-35.36,0.62
					c-9.03-0.94-17.13-2.06-24-3.15c-21.82-24.93-35.04-57.57-35.04-93.3c0-78.28,63.46-141.74,141.74-141.74
					s141.74,63.46,141.74,141.74c0,35.9-13.36,68.68-35.36,93.66c-6.36,0.97-13.68,1.95-21.72,2.79
					c-14.14,1.48-27.31,0.53-38.27-1.01L335.8,519.69z M367.65,593.37c-3.06-0.56-5.86-1.13-8.31-1.62l-1.23-0.25
					c-12.45-2.51-25.13-2.52-25.84-2.52c0,0,0,0,0,0c0,0,0,0,0,0c0,0-0.01,0-0.01,0c0,0,0,0,0,0c-0.74,0.02-13.4,0.02-25.83,2.52
					l-1.23,0.25c-3.23,0.65-7.04,1.42-11.31,2.16l37.04-65.59L367.65,593.37z M449.73,591.2c20.29-26.12,31.29-58.03,31.29-91.64
					c0-40-15.58-77.6-43.86-105.88c-28.28-28.28-65.89-43.86-105.88-43.86s-77.6,15.58-105.88,43.86
					c-28.28,28.28-43.86,65.89-43.86,105.88c0,33.43,10.89,65.18,30.97,91.21c-7.31-1.38-11.53-2.39-11.62-2.42
					c-0.32-0.08-0.64-0.1-0.96-0.1c-17.12-25.31-27.13-55.84-27.13-88.7c0-87.53,70.96-158.48,158.48-158.48
					s158.48,70.96,158.48,158.48c0,33.03-10.11,63.71-27.4,89.1C460.33,589.11,455.96,590.06,449.73,591.2z"/>
			</g>
		</g>
	</g>
</g>
</svg>
