<svg xmlns="http://www.w3.org/2000/svg" width="32" height="32" viewBox="0 0 32 32">
  <defs>
    <style>
      .cls-1 {
        fill: #fff;
      }

      .cls-2 {
        fill: none;
        opacity: 0;
      }
    </style>
  </defs>
  <g id="logo-github" transform="translate(-638.25 -34)">
    <path id="github" class="cls-1" d="M96.333,85.333a11,11,0,0,0-3.478,21.437c.55.1.756-.234.756-.524,0-.261-.014-1.126-.014-2.048-2.763.509-3.478-.673-3.7-1.292a4.007,4.007,0,0,0-1.128-1.554c-.385-.206-.935-.715-.014-.728a2.2,2.2,0,0,1,1.692,1.128,2.352,2.352,0,0,0,3.2.907,2.313,2.313,0,0,1,.7-1.471c-2.447-.275-5-1.224-5-5.432A4.281,4.281,0,0,1,90.476,92.8a3.953,3.953,0,0,1,.11-2.915s.921-.288,3.025,1.129a10.371,10.371,0,0,1,5.5,0c2.1-1.43,3.025-1.126,3.025-1.126a3.953,3.953,0,0,1,.11,2.915,4.257,4.257,0,0,1,1.128,2.956c0,4.222-2.571,5.157-5.018,5.432a2.605,2.605,0,0,1,.743,2.035c0,1.471-.014,2.653-.014,3.025,0,.288.207.631.757.521a11.006,11.006,0,0,0-3.507-21.436Z" transform="translate(557.589 -48.333)"/>
    <rect id="矩形_15" data-name="矩形 15" class="cls-2" width="32" height="32" transform="translate(638.25 34)"/>
  </g>
</svg>
