<?xml version="1.0" encoding="utf-8"?>
<!-- Generator: Adobe Illustrator 25.0.0, SVG Export Plug-In . SVG Version: 6.00 Build 0)  -->
<svg version="1.1" id="图层_1" xmlns="http://www.w3.org/2000/svg" xmlns:xlink="http://www.w3.org/1999/xlink" x="0px" y="0px"
	 viewBox="0 0 1920 1080" style="enable-background:new 0 0 1920 1080;" xml:space="preserve">
<style type="text/css">
	.st0{opacity:0.08;}
	.st1{fill:#FFFFFF;}
	.st2{fill:#D0241A;}
	.st3{fill:#9A2124;}
	.st4{fill:url(#SVGID_1_);}
	.st5{fill:url(#SVGID_2_);}
</style>
<g>
	<g class="st0">
		<path class="st1" d="M729.38,614.23V477.51h23.08v114.81h62.39v21.91H729.38z"/>
		<path class="st1" d="M823.65,489.44c-2.74-2.74-4.11-6-4.11-9.78c0-3.78,1.37-7.04,4.11-9.78s6-4.11,9.78-4.11
			c3.78,0,7.04,1.37,9.78,4.11s4.11,6,4.11,9.78c0,3.78-1.37,7.04-4.11,9.78s-6,4.11-9.78,4.11
			C829.65,493.55,826.39,492.18,823.65,489.44z M844.19,614.23h-21.91V510.17h21.91V614.23z"/>
		<path class="st1" d="M883.11,557.9v56.33H861.2V510.17h21.91v18.97c3.52-6.39,8.38-11.41,14.57-15.06
			c6.19-3.65,12.88-5.48,20.05-5.48c11.74,0,21.22,3.59,28.46,10.76c7.24,7.17,10.86,17.54,10.86,31.1v63.76h-21.91v-57.11
			c0-19.17-7.96-28.75-23.86-28.75c-7.56,0-14.15,2.51-19.75,7.53C885.91,540.91,883.11,548.25,883.11,557.9z"/>
		<path class="st1" d="M994.79,614.23h-21.91V469.1h21.91v85.28l42.25-44.2h28.17l-39.51,41.27l42.44,62.79h-26.6l-30.9-45.57
			l-15.84,16.04V614.23z"/>
	</g>
	<g>
		<g>
			<path class="st2" d="M881.93,560.91c0,0,15.29,0,20.06,0l-0.18-0.12c0,6.23,0,12.47,0,19.01c-16.32,0-32.2,0-48.39,0
				c0-26.12,0-51.93,0-78.44c9.64,0,19.08,0,28.51,0"/>
			<path class="st2" d="M881.93,501.36c0-6.22,0-12.45,0-19.02c16.84,0,32.71,0,49.23,0c0,3.63,0,7.05,0,10.47
				c0,11.57,0,23.14,0,34.71c0,20.86-8.51,30.51-29.35,33.28l0.18,0.12c0-19.66,0-59.55,0-59.55"/>
			<path class="st3" d="M925.71,549.14l-23.6-47.78v59.39C913.47,559.19,921.12,555.56,925.71,549.14z"/>
			<polygon class="st3" points="853.42,501.36 881.93,560.11 881.93,501.36 			"/>
			<g>
				<path class="st1" d="M1168.31,501.06c4.5,0,8.41,0,12.85,0c0,10.85-0.03,21.4,0.02,31.95c0.01,2.47,0,4.99,0.45,7.4
					c1.24,6.63,5.08,9.61,11.47,9.22c6.21-0.38,10-3.99,10.19-10.64c0.3-10.75,0.14-21.51,0.18-32.26c0.01-1.78,0-3.55,0-5.65
					c4.45,0,9.04,0,13.1,0c0,0-0.14,26.31-0.14,38.85c0,16.95-13.38,24.77-30.43,21.46c-10.45-2.03-17.07-9.39-17.54-19.75
					C1167.85,528.28,1168.31,514.88,1168.31,501.06z"/>
				<path class="st1" d="M972.94,501.84c4.26,0,8.18,0,12.74,0c0,15.79,0,31.36,0,47.52c9.02,0,17.42,0,26.1,0
					c0,3.97,0,7.34,0,10.99c-13,0-25.73,0-38.84,0C972.94,540.76,972.94,521.4,972.94,501.84z"/>
				<path class="st1" d="M1022.54,560.35c0-14.7,0-29.13,0-43.88c4.11,0,7.98,0,12.11,0c0,14.7,0,29.14,0,43.88
					C1030.69,560.35,1026.92,560.35,1022.54,560.35z"/>
				<path class="st1" d="M1028.32,510.27c-4.09-0.12-7.24-3.3-7.24-7.31c0-4.17,3.52-7.56,7.71-7.42c4.21,0.13,7.44,3.68,7.19,7.89
					C1035.75,507.43,1032.44,510.38,1028.32,510.27z"/>
				<path class="st1" d="M1142.44,530.12c5.11,0,9.98,0,15.19,0c0,3.52,0,6.86,0,10.48c-5.08,0-9.97,0-15.19,0
					C1142.44,537.12,1142.44,533.79,1142.44,530.12z"/>
				<path class="st1" d="M1058.85,560.35h-12.84v-43.06c0,0,10.05-2.71,22.33-1.89s16.88,8.86,16.88,16.9c0,5.21,0,28.05,0,28.05
					h-13.12v-26.32c0,0,0,2.32,0-2.81c0-4.58-6.7-7.33-13.3-4.95L1058.85,560.35z"/>
				<path class="st1" d="M1098.11,560.35h12.84v-19.27c0,0,8.51,7.15,15.35,19.27h14.37c0,0-10.47-17.74-18.84-24.71l18.42-19.81
					h-15.53l-13.86,16.28v-37.86c0,0-5.67,1.21-12.74,2.23v63.87H1098.11z"/>
			</g>
		</g>
	</g>
	<g>
		<linearGradient id="SVGID_1_" gradientUnits="userSpaceOnUse" x1="748.8984" y1="510.5042" x2="766.1661" y2="537.3147">
			<stop  offset="0.3923" style="stop-color:#F26631"/>
			<stop  offset="0.7374" style="stop-color:#ED1B23"/>
		</linearGradient>
		<path class="st4" d="M730.38,528.48c2.8,0,5.54-0.25,8.21-0.7v13.87l-8.6-4.46v-8.72C730.12,528.47,730.25,528.48,730.38,528.48z
			 M742.48,534.41l8.6,4.46v-14.98c-2.73,1.28-5.61,2.33-8.6,3.09V534.41z M754.97,531.61l8.6,4.46v-20.64
			c-2.61,2.44-5.49,4.59-8.6,6.4V531.61z M776.05,496.62c-1.99,5.44-4.92,10.41-8.6,14.74v17.46l8.6,4.46V496.62L776.05,496.62z"/>
		<linearGradient id="SVGID_2_" gradientUnits="userSpaceOnUse" x1="742.0438" y1="496.0348" x2="758.7835" y2="521.021">
			<stop  offset="0.0965" style="stop-color:#ED1B23"/>
			<stop  offset="0.7808" style="stop-color:#730000"/>
		</linearGradient>
		<path class="st5" d="M738.59,527.79L738.59,527.79c-2.67,0.45-5.41,0.7-8.21,0.7c-0.13,0-0.26-0.01-0.39-0.01l0,0V500.3l8.6,4.46
			V527.79z M751.08,501.97l-8.6-4.46v29.46l0,0c2.99-0.76,5.86-1.8,8.6-3.09l0,0V501.97z M763.57,499.17l-8.6-4.46v27.12l0,0
			c3.1-1.82,5.99-3.97,8.6-6.4l0,0V499.17z M776.05,496.37l-8.6-4.46v19.44l0,0c3.67-4.33,6.61-9.3,8.6-14.74V496.37z"/>
		<path id="XMLID_20_" class="st1" d="M735.48,563.77c-2.01,0-3.3-0.49-4.7-1.89l2.79-2.76c0.53,0.53,0.97,0.87,1.92,0.87
			c1.31,0,2.25-0.73,2.25-2.38v-11.25h4.24v11.35C741.98,561.81,738.73,563.77,735.48,563.77"/>
		<path id="XMLID_17_" class="st1" d="M753.52,557.47h-2.6v6.16h-4.24v-17.26h6.84c3.83,0,5.89,2.72,5.89,5.56
			C759.41,554.75,757.35,557.47,753.52,557.47 M753.33,550.17h-2.4v3.49h2.4c1.16,0,1.84-0.85,1.84-1.74
			C755.17,551.02,754.49,550.17,753.33,550.17z"/>
		<polyline id="XMLID_16_" class="st1" points="771.14,563.63 768.31,558.32 765.47,563.63 760.62,563.63 766,554.78 760.96,546.36 
			765.78,546.36 768.31,551.24 770.83,546.36 775.65,546.36 770.61,554.78 775.99,563.63 771.14,563.63 		"/>
		<path class="st1" d="M703.43,483.26v109.95h99.16V483.26H703.43z M800.59,485.26v83.7h-95.16v-83.7H800.59z M705.43,591.22v-20.26
			h95.16v20.26H705.43z"/>
		<g>
			<path class="st1" d="M721.4,583.56h-3.45c0.63,0.62,1.39,1.2,2.28,1.73c0.89,0.54,1.79,0.95,2.68,1.25
				c-0.34,0.26-0.66,0.65-0.96,1.16c-0.89-0.37-1.79-0.86-2.7-1.49c-0.91-0.62-1.69-1.3-2.36-2.04v3.69h-1.4v-3.64
				c-0.67,0.72-1.44,1.39-2.32,2c-0.88,0.61-1.76,1.09-2.64,1.45c-0.27-0.45-0.58-0.83-0.93-1.13c0.88-0.32,1.76-0.74,2.63-1.28
				c0.87-0.53,1.61-1.11,2.22-1.73h-3.24v-5.34h4.29v-1.06h-5.51v-1.24h5.51v-1.28h1.4v1.28h5.64v1.24h-5.64v1.06h4.51V583.56z
				 M712.52,579.25v1.14h2.97v-1.14H712.52z M712.52,581.36v1.17h2.97v-1.17H712.52z M720.03,579.25h-3.14v1.14h3.14V579.25z
				 M720.03,582.53v-1.17h-3.14v1.17H720.03z"/>
			<path class="st1" d="M724.02,578.13v-1.07h5.26v1.07H724.02z M728.86,583.02v4.23h-3.03v0.62h-1.16v-4.85H728.86z M728.77,579.06
				v1.04h-4.07v-1.04H728.77z M724.7,582.07v-1.04h4.07v1.04H724.7z M728.77,575.12v1.04h-3.99v-1.04H728.77z M727.69,584.11h-1.86
				v2.07h1.86V584.11z M734.31,586.12h3.02v1.27h-8.03v-1.27h1v-7.01h1.24v7.01H733v-9.42h-3.27v-1.27h7.36v1.27h-2.78v3.74H737
				v1.27h-2.69V586.12z"/>
			<path class="st1" d="M738.56,580.37h13.14v1.48h-13.14V580.37z"/>
			<path class="st1" d="M752.93,581.32v-1.23h7.39v1.23H752.93z M760.14,576.13v1.17h-6.85v-1.17h2.76v-1.42h1.3v1.42H760.14z
				 M753.85,587.89v-5.46h5.75v5.4h-1.31v-0.72h-3.2v0.78H753.85z M755.89,579.73l-1.18,0.28c-0.07-0.69-0.25-1.43-0.56-2.24
				l1.11-0.24C755.56,578.17,755.77,578.9,755.89,579.73z M758.29,583.62h-3.2v2.33h3.2V583.62z M758.47,580.04l-1.07-0.28
				c0.31-0.76,0.55-1.53,0.73-2.3l1.27,0.28C758.79,579.24,758.48,580.01,758.47,580.04z M765.2,575.41l1,0.62
				c-0.82,1.98-1.44,3.41-1.87,4.29c1.1,1.09,1.65,2.23,1.65,3.42c0,0.99-0.25,1.65-0.75,1.99c-0.26,0.18-0.58,0.3-0.96,0.35
				c-0.15,0.02-0.54,0.03-1.18,0.03c-0.02-0.47-0.14-0.91-0.37-1.32c0.42,0.03,0.75,0.04,0.99,0.03c0.24-0.02,0.44-0.07,0.58-0.15
				c0.26-0.16,0.39-0.52,0.39-1.07c0-1.03-0.57-2.06-1.71-3.09c0.34-0.74,0.83-2,1.48-3.78h-2.3v11.16h-1.31v-12.42h4.14
				L765.2,575.41z"/>
			<path class="st1" d="M774.22,585.83h6.22v1.37h-12.93v-1.37h5.27v-11h1.44v4.29h5.22v1.35h-5.22V585.83z"/>
			<path class="st1" d="M786.12,582.11l0.3,1.18c-1.83,0.94-3.24,1.64-4.21,2.1l-0.52-1.34c0.39-0.14,1.01-0.4,1.88-0.79v-4.3h-1.59
				v-1.27h1.59v-2.92h1.24v2.92h1.45v1.27h-1.45v3.75c0.1-0.05,0.31-0.14,0.61-0.28C785.71,582.29,785.95,582.18,786.12,582.11z
				 M795.04,581.59h-5.84c-0.15,0.3-0.33,0.59-0.54,0.87h6.03c-0.01,0.23-0.02,0.39-0.03,0.51c-0.11,1.44-0.23,2.48-0.35,3.14
				s-0.28,1.09-0.48,1.3c-0.21,0.23-0.49,0.36-0.86,0.41c-0.43,0.04-0.92,0.04-1.45,0.01c-0.02-0.42-0.12-0.78-0.3-1.08
				c0.33,0.04,0.7,0.06,1.13,0.06c0.21,0,0.35-0.05,0.44-0.16c0.23-0.26,0.43-1.3,0.58-3.1h-0.86c-0.3,0.87-0.71,1.7-1.24,2.5
				c-0.53,0.8-1.08,1.43-1.66,1.88c-0.24-0.28-0.57-0.53-0.97-0.75c0.54-0.37,1.06-0.88,1.55-1.53c0.49-0.65,0.89-1.36,1.2-2.11
				h-1.14c-0.39,0.72-0.91,1.43-1.54,2.13s-1.26,1.24-1.9,1.63c-0.23-0.32-0.53-0.59-0.89-0.8c0.56-0.3,1.12-0.72,1.68-1.25
				c0.55-0.53,1.03-1.1,1.44-1.71h-1.21c-0.52,0.57-1.11,1.09-1.78,1.54c-0.28-0.32-0.58-0.6-0.9-0.83
				c1.14-0.65,2.04-1.54,2.72-2.66h-1.85v-1.13h9.02V581.59z M794.02,575.03v4.72h-6.67v-4.72H794.02z M792.78,576.93v-0.94h-4.21
				v0.94H792.78z M792.78,578.79v-0.96h-4.21v0.96H792.78z"/>
		</g>
	</g>
</g>
</svg>
