<svg xmlns="http://www.w3.org/2000/svg" xmlns:xlink="http://www.w3.org/1999/xlink" width="133.946" height="52" viewBox="0 0 133.946 52">
  <defs>
    <style>
      .cls-1 {
        fill: #fff;
      }

      .cls-2 {
        opacity: 0.7;
      }

      .cls-3 {
        fill: none;
      }

      .cls-4 {
        clip-path: url(#clip-path);
      }

      .cls-5 {
        clip-path: url(#clip-path-2);
      }

      .cls-6 {
        fill: #ededed;
      }

      .cls-7 {
        fill: #43aaff;
      }

      .cls-8 {
        fill: #333;
      }

      .cls-9 {
        fill: #f8f8f8;
      }

      .cls-10 {
        fill: #ff8d52;
      }
    </style>
    <clipPath id="clip-path">
      <path id="Clip_2" data-name="Clip 2" class="cls-1" d="M0,0H22.526V29.761H0Z"/>
    </clipPath>
    <clipPath id="clip-path-2">
      <path id="Clip_22" data-name="Clip 22" class="cls-1" d="M0,0H14.822V20.45H0Z"/>
    </clipPath>
  </defs>
  <g id="logo_top" class="cls-2" transform="translate(0 0)">
    <g id="编组" transform="translate(0 0.52)">
      <path id="Clip_2-2" data-name="Clip 2" class="cls-3" d="M0,0H22.526V29.761H0Z" transform="translate(0 0)"/>
      <g id="编组-2" data-name="编组" class="cls-4" transform="translate(0 0)">
        <path id="Fill_1" data-name="Fill 1" class="cls-1" d="M7.625,2.144A26.134,26.134,0,0,1,18.889,0,9.932,9.932,0,0,1,20.3,2.772a8.964,8.964,0,0,1,.586,2.816q0,1-.477,1.171a5.239,5.239,0,0,0-2.6-1.28,14.294,14.294,0,0,0-3.726-.541,4.328,4.328,0,0,0-1.516.217A10.775,10.775,0,0,0,7.277,9.14a10.19,10.19,0,0,0-1.775,5.8,10.94,10.94,0,0,0,1.321,5.242,10.453,10.453,0,0,0,9.466,5.545,15.836,15.836,0,0,0,6.237-1.343,6.511,6.511,0,0,1-3.335,3.9A11.891,11.891,0,0,1,13.3,29.761a11.965,11.965,0,0,1-5.068-1.04,13.428,13.428,0,0,1-6.151-5.177A14.054,14.054,0,0,1,0,15.986,18.472,18.472,0,0,1,1.256,9.27,12.313,12.313,0,0,1,7.625,2.144" transform="translate(0 0)"/>
      </g>
    </g>
    <path id="Fill_3" data-name="Fill 3" class="cls-1" d="M13.052,21.192A.152.152,0,0,1,13,21.185v-2.9a13.516,13.516,0,0,1-1.971,1.559,4.338,4.338,0,0,1-1.972.607l-.778.043A7.646,7.646,0,0,1,3.791,19.17,8.245,8.245,0,0,1,.953,15.682,11.427,11.427,0,0,1,0,11.048,11.561,11.561,0,0,1,1.582,5.134,8.741,8.741,0,0,1,6.066,1.3,10.765,10.765,0,0,1,10.008.477,8.82,8.82,0,0,1,14.079,1.56L15.51.953C16.287.666,17.045.345,17.762,0c-.344,4.141-.519,8.338-.519,12.476,0,1.744.022,3.268.065,4.527.044,1.28.093,2.109.151,2.534a4.252,4.252,0,0,1-1.558.931,14.073,14.073,0,0,1-1.908.565A6.382,6.382,0,0,1,13.052,21.192ZM11.5,3.684h0a2.1,2.1,0,0,0-.41.041A7.393,7.393,0,0,0,6.11,6a6.513,6.513,0,0,0-1.691,4.4,6.751,6.751,0,0,0,.758,3.119A6.168,6.168,0,0,0,7.343,15.9a5.922,5.922,0,0,0,3.272.909,9.162,9.162,0,0,0,2.338-.348c.144-3.014.217-5.594.217-7.667V4.2c-.064-.029-.329-.144-.758-.324a2.364,2.364,0,0,0-.91-.192Z" transform="translate(23.989 9.939)"/>
    <path id="Fill_5" data-name="Fill 5" class="cls-1" d="M5.545,29.806h0a28.076,28.076,0,0,0-2.857-.433,6.589,6.589,0,0,1-2.014-.39A1.407,1.407,0,0,1,0,27.813a33,33,0,0,0,.541-5.805c.129-3.058.195-6.44.195-10.05,0-3.234-.066-5.981-.195-8.167S.23.389,0,.217A.57.57,0,0,1,.32.133,2.66,2.66,0,0,1,1.431.5c.692.361,1.683.966,2.945,1.8A5.256,5.256,0,0,1,9.01,0a10.206,10.206,0,0,1,4.658,1.214,8.449,8.449,0,0,1,3.356,2.774,7.273,7.273,0,0,1,1.04,4.028,13.349,13.349,0,0,1-.778,4.4A11.79,11.79,0,0,1,15.1,16.267,6.18,6.18,0,0,1,12,18.326a13.208,13.208,0,0,1-3.162.345,6.437,6.437,0,0,1-4.245-1.214,59.9,59.9,0,0,0,.519,6.586c.287,2.636.433,4.574.433,5.76ZM7.762,3.6A3.205,3.205,0,0,0,4.588,6.707c-.056,1.585-.083,2.735-.083,3.517a6.86,6.86,0,0,0,1.229,4.095l.086.129a4.044,4.044,0,0,0,2.426.91,1.6,1.6,0,0,0,1.394-.509c.083-.068.174-.143.28-.227a6.713,6.713,0,0,0,1.884-2.47,7.676,7.676,0,0,0,.715-3.269,7.584,7.584,0,0,0-.736-3.336,3.229,3.229,0,0,0-1.538-1.407A5.5,5.5,0,0,0,7.8,3.6Z" transform="translate(44.753 8.915)"/>
    <path id="Fill_7" data-name="Fill 7" class="cls-1" d="M4.945,6.91A17.024,17.024,0,0,0,5.9,8.492,2.437,2.437,0,0,0,7,9.249q.8.325,2.231.8a22.9,22.9,0,0,1,4.354,1.8,3.685,3.685,0,0,1,1.927,2.62,7.167,7.167,0,0,1,.131,1.343,5.324,5.324,0,0,1-1.234,3.574,7.531,7.531,0,0,1-3.119,2.166,10.526,10.526,0,0,1-3.748.714,14.288,14.288,0,0,1-3.466-.455,10.8,10.8,0,0,1-2.99-1.169Q-.08,19.929.006,19.192l1.083-5.458a11.98,11.98,0,0,0,2.773,3.551,5.185,5.185,0,0,0,3.682,1.647,3.6,3.6,0,0,0,2.361-.8,2.345,2.345,0,0,0,.975-1.842,2.682,2.682,0,0,0-1.149-2.035A8.359,8.359,0,0,0,6.2,12.78a7.68,7.68,0,0,1-4.355-2.318A5.732,5.732,0,0,1,.353,6.585,6.04,6.04,0,0,1,1.545,3.01,6.874,6.874,0,0,1,4.815.563,8.671,8.671,0,0,1,7.934,0a10.987,10.987,0,0,1,6.715,2.513,4.039,4.039,0,0,1-.694,2.4A2.121,2.121,0,0,1,12.31,5.935a4.678,4.678,0,0,0-1.56-2.058,3.576,3.576,0,0,0-2.122-.716,3.75,3.75,0,0,0-2.144.694A5.176,5.176,0,0,0,4.815,5.8,1.209,1.209,0,0,0,4.945,6.91" transform="translate(63.63 8.522)"/>
    <path id="Fill_9" data-name="Fill 9" class="cls-1" d="M17.718,20.664a10.661,10.661,0,0,0-1.385.174q-1.606.218-1.95.217a1.377,1.377,0,0,1-.823-.174,1.6,1.6,0,0,1-.542-.541,6.9,6.9,0,0,1-.411-.716A3.951,3.951,0,0,0,12,18.671,8.692,8.692,0,0,1,6.67,20.49a7.1,7.1,0,0,1-4.352-1.364,5.024,5.024,0,0,1-2.1-3.573Q.043,13.777.043,11.177L.087,7.885Q.13,6.757.131,4.635q0-1.991-.131-3.6Q1.126.608,1.971.324A5.288,5.288,0,0,1,3.639.044,2.563,2.563,0,0,1,4.245.13Q3.9,5.458,3.9,8.924q0,4.593.607,5.934A2.181,2.181,0,0,0,5.567,16.44a3.948,3.948,0,0,0,2.1.542,4.537,4.537,0,0,0,2.773-.866,2.208,2.208,0,0,0,.953-2.253q.086-1.515.086-5.544,0-5.2-.043-7.582A5.667,5.667,0,0,1,13.018.281,11.862,11.862,0,0,1,15.336,0a1.967,1.967,0,0,1,.823.13,65.757,65.757,0,0,0-.521,8.664,36.6,36.6,0,0,0,.65,7.884,23.312,23.312,0,0,0,1.43,3.985" transform="translate(82.415 9.34)"/>
    <path id="Fill_11" data-name="Fill 11" class="cls-1" d="M2.187.736A23.186,23.186,0,0,1,5.37,0q.088,1-.13,7.429T4.98,15.812q-.389,11.136-.389,13.819Q3.377,30.715,0,31.1q.517-3.6.779-29.458Q.822,1.17,2.187.736" transform="translate(101.793 0)"/>
    <path id="Fill_13" data-name="Fill 13" class="cls-1" d="M9.443,21.357a9.464,9.464,0,0,1-4.68-1.214A9.146,9.146,0,0,1,1.3,16.7,10.061,10.061,0,0,1,0,11.567,13.408,13.408,0,0,1,.476,8.015,11.089,11.089,0,0,1,4.135,2.1,8.967,8.967,0,0,1,9.834,0a7.6,7.6,0,0,1,5.089,1.883,8.868,8.868,0,0,1,2.795,5.394c.068.283.2.85.347,1.517a9.573,9.573,0,0,1,.259,2.036A1.78,1.78,0,0,1,18.02,12c-.563.03-1.66.058-3.356.086-1.676.029-3.535.044-5.525.044a25.019,25.019,0,0,1-4.894-.217A3.392,3.392,0,0,0,4.071,13c0,1.323.787,2.415,2.34,3.247A11.791,11.791,0,0,0,12.043,17.5a13.745,13.745,0,0,0,4.593-.735l2.035-.781a12.52,12.52,0,0,1-4.246,4.029A10.214,10.214,0,0,1,9.443,21.357Zm.564-17.414a4.707,4.707,0,0,0-3.1,1.3A8.1,8.1,0,0,0,4.635,8.968c.226,0,.481.008.777.008,1.216,0,2.747-.054,4.551-.16a22.5,22.5,0,0,0,4.289-.5,2.55,2.55,0,0,0-.173-.561,5.087,5.087,0,0,1-.217-.607,4.69,4.69,0,0,0-1.517-2.384A3.684,3.684,0,0,0,10.007,3.943Z" transform="translate(109.145 9.467)"/>
    <path id="Fill_15" data-name="Fill 15" class="cls-1" d="M14.022,18.124H0L.023,17.3l2.16-.218q.072-2.427.073-6.817V8.54q0-5.021-.073-7.52L0,.826V0H8.781V.826L6.4,1.044Q6.356,3.5,6.355,8.152V9.729q0,4.926.049,7.448h5.046l1.212-4.487h1.311Z" transform="translate(72.389 33.465)"/>
    <path id="Fill_17" data-name="Fill 17" class="cls-1" d="M10.5,14.07a2.682,2.682,0,0,1-2.862-2.111,5.56,5.56,0,0,1-4.1,2.111,3.621,3.621,0,0,1-2.548-.9A3.088,3.088,0,0,1,0,10.77,3.411,3.411,0,0,1,1.117,8.1a10.978,10.978,0,0,1,4.05-1.869c.456-.129,1.256-.341,2.378-.63V4.124a4.724,4.724,0,0,0-.51-2.6A2.323,2.323,0,0,0,5.119.849a5.363,5.363,0,0,0-1.02.1L3.93,2.669c-.065,1.529-.677,2.3-1.819,2.3A1.527,1.527,0,0,1,.436,3.736a3.418,3.418,0,0,1,1.7-2.718A8.112,8.112,0,0,1,6.5,0a4.991,4.991,0,0,1,3.713,1.189A5.406,5.406,0,0,1,11.329,5v6.527c0,.821.253,1.238.751,1.238.343,0,.7-.3,1.093-.923l.411.34A3.1,3.1,0,0,1,10.5,14.07ZM7.545,6.259a11.612,11.612,0,0,0-1.335.412,3.714,3.714,0,0,0-2.6,3.614c0,1.417.612,2.135,1.819,2.135a3.578,3.578,0,0,0,2.111-1.114V6.259Z" transform="translate(88.019 37.93)"/>
    <path id="Fill_19" data-name="Fill 19" class="cls-1" d="M15.7,12.907v.752H8.661v-.752l1.529-.145q.047-2.816.048-4.877V4.391q0-2.573-1.674-2.572A4.528,4.528,0,0,0,5.8,3.2V7.884q0,2.038.048,4.9l1.383.122v.752H.218v-.752l1.625-.145q.051-2.865.051-4.877V5.871q0-1.795-.074-3.542L0,2.134V1.552L5.264.023,5.6.267,5.749,2.4A6,6,0,0,1,10.285,0,3.578,3.578,0,0,1,13.1,1.141a5.264,5.264,0,0,1,1.067,3.541v3.2q0,2.791.074,4.9Z" transform="translate(101.948 37.93)"/>
    <g id="编组-3" data-name="编组" transform="translate(119.124 31.551)">
      <path id="Clip_22-2" data-name="Clip 22" class="cls-3" d="M0,0H14.822V20.45H0Z" transform="translate(0 0)"/>
      <g id="编组-4" data-name="编组" class="cls-5" transform="translate(0 0)">
        <path id="Fill_21" data-name="Fill 21" class="cls-1" d="M5.678,20.45a5.117,5.117,0,0,1-4.029-1.819A7.613,7.613,0,0,1,0,13.512,7.633,7.633,0,0,1,1.771,8.224,5.457,5.457,0,0,1,6.017,6.38,4.4,4.4,0,0,1,9.485,8.029V1.867L7.5,1.673V1.042L13,0l.34.218-.1,3.881V19.19l1.576.1v.751l-5.191.291-.195-1.5A5.18,5.18,0,0,1,5.678,20.45Zm1.867-12.4A2.808,2.808,0,0,0,5.016,9.382a7.577,7.577,0,0,0-.842,3.983,7.9,7.9,0,0,0,.818,4.023,2.7,2.7,0,0,0,2.455,1.34,2.98,2.98,0,0,0,1.893-.63V8.684A2.84,2.84,0,0,0,7.545,8.054Z" transform="translate(0 0)"/>
      </g>
    </g>
    <path id="Fill_23" data-name="Fill 23" class="cls-6" d="M0,0S6.514,5.847,10.7,6.689s10.184-.362,10.184-.362-3.453,4.492-10.751,3.062A13.04,13.04,0,0,1,1.08,2.66,7.346,7.346,0,0,1,0,0" transform="translate(0.562 20.479)"/>
    <path id="Fill_25" data-name="Fill 25" class="cls-6" d="M0,0S3.818,3.428,6.275,3.921a18.71,18.71,0,0,0,5.97-.211s-2.024,2.634-6.3,1.8A7.644,7.644,0,0,1,.633,1.56,4.294,4.294,0,0,1,0,0" transform="translate(24.551 24.656)"/>
    <path id="Fill_27" data-name="Fill 27" class="cls-7" d="M0,6.4V5.335a5.336,5.336,0,0,1,10.671,0V6.4" transform="translate(48.444 12.055)"/>
    <path id="Fill_29" data-name="Fill 29" class="cls-8" d="M11.888,7.01H10.673V5.944a4.728,4.728,0,1,0-9.457,0V7.01H0V5.944a5.944,5.944,0,1,1,11.888,0Z" transform="translate(47.837 11.45)"/>
    <path id="Fill_31" data-name="Fill 31" class="cls-9" d="M.009,3.8A3.352,3.352,0,0,1,1.047,1.368,3.66,3.66,0,0,1,3.766,0a.608.608,0,0,1-.027,1.215,2.462,2.462,0,0,0-1.763.937,2.544,2.544,0,0,0-.76,1.516c0-.014,0-.022,0-.022Z" transform="translate(49.62 13.228)"/>
    <path id="Fill_33" data-name="Fill 33" class="cls-10" d="M11.038,2.1c.312-.027.561-.958.561-1.354A.688.688,0,0,0,11,0H.6A.688.688,0,0,0,0,.748C0,1.162.27,2.1.6,2.1h.01A4.914,4.914,0,0,0,5.825,6.326,4.916,4.916,0,0,0,11.038,2.1" transform="translate(47.98 18.53)"/>
    <path id="Fill_35" data-name="Fill 35" class="cls-8" d="M6.433,7.539A5.512,5.512,0,0,1,.686,3.124,2.773,2.773,0,0,1,0,1.355,1.291,1.291,0,0,1,1.212,0H11.6a1.291,1.291,0,0,1,1.212,1.355,2.833,2.833,0,0,1-.628,1.736A5.508,5.508,0,0,1,6.433,7.539ZM1.252,1.214a.258.258,0,0,0-.036.141,2.137,2.137,0,0,0,.193.748h.309l.1.5A4.317,4.317,0,0,0,6.433,6.324,4.319,4.319,0,0,0,11.049,2.6l.082-.457.28-.023a2.339,2.339,0,0,0,.188-.764.257.257,0,0,0-.036-.141H1.252Z" transform="translate(47.374 17.924)"/>
  </g>
</svg>
